<svg width="65" height="18" viewBox="0 0 65 18" fill="none" xmlns="http://www.w3.org/2000/svg">
<path d="M54.5908 17.0271C54.2086 17.0271 53.89 16.8939 53.6352 16.6275C53.3688 16.3611 53.2356 16.0425 53.2356 15.6719C53.2356 15.3012 53.3688 14.9827 53.6352 14.7163C53.89 14.4499 54.2086 14.3167 54.5908 14.3167H56.5715C56.9537 14.3167 57.2723 14.4499 57.5271 14.7163C57.7935 14.9827 57.9267 15.3012 57.9267 15.6719C57.9267 16.0425 57.7935 16.3611 57.5271 16.6275C57.2723 16.8939 56.9537 17.0271 56.5715 17.0271H54.5908ZM61.2626 17.0271C60.8804 17.0271 60.5561 16.8939 60.2896 16.6275C60.0348 16.3611 59.9074 16.0425 59.9074 15.6719C59.9074 15.3012 60.0348 14.9827 60.2896 14.7163C60.5561 14.4499 60.8804 14.3167 61.2626 14.3167H62.1313C62.5136 14.3167 62.8321 14.4499 63.0869 14.7163C63.3534 14.9827 63.4866 15.3012 63.4866 15.6719C63.4866 16.0425 63.3534 16.3611 63.0869 16.6275C62.8321 16.8939 62.5136 17.0271 62.1313 17.0271H61.2626ZM55.7028 14.8031C55.3205 14.8031 54.9962 14.6699 54.7298 14.4035C54.475 14.1371 54.3476 13.8186 54.3476 13.4479C54.3476 13.0773 54.475 12.7587 54.7298 12.4923C54.9962 12.2259 55.3205 12.0927 55.7028 12.0927H56.5715C56.9537 12.0927 57.2723 12.2259 57.5271 12.4923C57.7935 12.7587 57.9267 13.0773 57.9267 13.4479C57.9267 13.8186 57.7935 14.1371 57.5271 14.4035C57.2723 14.6699 56.9537 14.8031 56.5715 14.8031H55.7028ZM60.1507 14.8031C59.7684 14.8031 59.4441 14.6699 59.1777 14.4035C58.9229 14.1371 58.7954 13.8186 58.7954 13.4479C58.7954 13.0773 58.9229 12.7587 59.1777 12.4923C59.4441 12.2259 59.7684 12.0927 60.1507 12.0927H61.0194C61.4016 12.0927 61.7202 12.2259 61.975 12.4923C62.2414 12.7587 62.3746 13.0773 62.3746 13.4479C62.3746 13.8186 62.2414 14.1371 61.975 14.4035C61.7202 14.6699 61.4016 14.8031 61.0194 14.8031H60.1507ZM55.7028 12.5792C55.3205 12.5792 54.9962 12.446 54.7298 12.1796C54.475 11.9132 54.3476 11.5946 54.3476 11.224C54.3476 10.8533 54.475 10.5348 54.7298 10.2684C54.9962 10.002 55.3205 9.86878 55.7028 9.86878H56.5715C56.9537 9.86878 57.2723 10.002 57.5271 10.2684C57.7935 10.5348 57.9267 10.8533 57.9267 11.224C57.9267 11.5946 57.7935 11.9132 57.5271 12.1796C57.2723 12.446 56.9537 12.5792 56.5715 12.5792H55.7028ZM59.0387 12.5792C58.6564 12.5792 58.3321 12.446 58.0657 12.1796C57.8109 11.9132 57.6835 11.5946 57.6835 11.224C57.6835 10.8533 57.8109 10.5348 58.0657 10.2684C58.3321 10.002 58.6564 9.86878 59.0387 9.86878H59.9074C60.2896 9.86878 60.6082 10.002 60.863 10.2684C61.1294 10.5348 61.2626 10.8533 61.2626 11.224C61.2626 11.5946 61.1294 11.9132 60.863 12.1796C60.6082 12.446 60.2896 12.5792 59.9074 12.5792H59.0387ZM55.9634 10.3553C55.4653 10.3553 55.0715 10.2221 54.7819 9.95565C54.4924 9.68924 54.3476 9.37071 54.3476 9.00005C54.3476 8.62939 54.4924 8.31086 54.7819 8.04445C55.0715 7.77804 55.4653 7.64484 55.9634 7.64484H59.6468C60.1449 7.64484 60.5387 7.77804 60.8283 8.04445C61.1178 8.31086 61.2626 8.62939 61.2626 9.00005C61.2626 9.37071 61.1178 9.68924 60.8283 9.95565C60.5387 10.2221 60.1449 10.3553 59.6468 10.3553H55.9634ZM55.7028 8.13132C55.3205 8.13132 54.9962 7.99812 54.7298 7.73171C54.475 7.4653 54.3476 7.14677 54.3476 6.77611C54.3476 6.40546 54.475 6.08692 54.7298 5.82051C54.9962 5.5541 55.3205 5.4209 55.7028 5.4209H56.5715C56.9537 5.4209 57.2723 5.5541 57.5271 5.82051C57.7935 6.08692 57.9267 6.40546 57.9267 6.77611C57.9267 7.14677 57.7935 7.4653 57.5271 7.73171C57.2723 7.99812 56.9537 8.13132 56.5715 8.13132H55.7028ZM60.1507 8.13132C59.7684 8.13132 59.4441 7.99812 59.1777 7.73171C58.9229 7.4653 58.7954 7.14677 58.7954 6.77611C58.7954 6.40546 58.9229 6.08692 59.1777 5.82051C59.4441 5.5541 59.7684 5.4209 60.1507 5.4209H61.0194C61.4016 5.4209 61.7202 5.5541 61.975 5.82051C62.2414 6.08692 62.3746 6.40546 62.3746 6.77611C62.3746 7.14677 62.2414 7.4653 61.975 7.73171C61.7202 7.99812 61.4016 8.13132 61.0194 8.13132H60.1507ZM55.7028 5.90739C55.3205 5.90739 54.9962 5.77418 54.7298 5.50777C54.475 5.24136 54.3476 4.92283 54.3476 4.55217C54.3476 4.18152 54.475 3.86298 54.7298 3.59657C54.9962 3.33017 55.3205 3.19696 55.7028 3.19696H56.5715C56.9537 3.19696 57.2723 3.33017 57.5271 3.59657C57.7935 3.86298 57.9267 4.18152 57.9267 4.55217C57.9267 4.92283 57.7935 5.24136 57.5271 5.50777C57.2723 5.77418 56.9537 5.90739 56.5715 5.90739H55.7028ZM60.1507 5.90739C59.7684 5.90739 59.4441 5.77418 59.1777 5.50777C58.9229 5.24136 58.7954 4.92283 58.7954 4.55217C58.7954 4.18152 58.9229 3.86298 59.1777 3.59657C59.4441 3.33017 59.7684 3.19696 60.1507 3.19696H61.0194C61.4016 3.19696 61.7202 3.33017 61.975 3.59657C62.2414 3.86298 62.3746 4.18152 62.3746 4.55217C62.3746 4.92283 62.2414 5.24136 61.975 5.50777C61.7202 5.77418 61.4016 5.90739 61.0194 5.90739H60.1507ZM54.8514 3.68345C54.3534 3.68345 53.9595 3.55024 53.67 3.28383C53.3804 3.01742 53.2356 2.69889 53.2356 2.32823C53.2356 1.95758 53.3804 1.63905 53.67 1.37264C53.9595 1.10623 54.3534 0.973022 54.8514 0.973022H59.6468C60.1449 0.973022 60.5387 1.10623 60.8283 1.37264C61.1178 1.63905 61.2626 1.95758 61.2626 2.32823C61.2626 2.69889 61.1178 3.01742 60.8283 3.28383C60.5387 3.55024 60.1449 3.68345 59.6468 3.68345H54.8514Z" fill="#FEFEFE"/>
<path d="M45.9557 17.0271C45.4576 17.0271 45.0638 16.8939 44.7742 16.6275C44.4846 16.3611 44.3398 16.0425 44.3398 15.6719C44.3398 15.3012 44.4846 14.9827 44.7742 14.7163C45.0638 14.4499 45.4576 14.3167 45.9557 14.3167H51.863C52.3611 14.3167 52.7549 14.4499 53.0445 14.7163C53.3341 14.9827 53.4788 15.3012 53.4788 15.6719C53.4788 16.0425 53.3341 16.3611 53.0445 16.6275C52.7549 16.8939 52.3611 17.0271 51.863 17.0271H45.9557ZM46.807 14.8031C46.4248 14.8031 46.1005 14.6699 45.8341 14.4035C45.5792 14.1371 45.4518 13.8186 45.4518 13.4479C45.4518 13.0773 45.5792 12.7587 45.8341 12.4923C46.1005 12.2259 46.4248 12.0927 46.807 12.0927H47.6758C48.058 12.0927 48.3765 12.2259 48.6313 12.4923C48.8978 12.7587 49.031 13.0773 49.031 13.4479C49.031 13.8186 48.8978 14.1371 48.6313 14.4035C48.3765 14.6699 48.058 14.8031 47.6758 14.8031H46.807ZM51.2549 14.8031C50.8727 14.8031 50.5483 14.6699 50.2819 14.4035C50.0271 14.1371 49.8997 13.8186 49.8997 13.4479C49.8997 13.0773 50.0271 12.7587 50.2819 12.4923C50.5483 12.2259 50.8727 12.0927 51.2549 12.0927H52.1236C52.5059 12.0927 52.8244 12.2259 53.0792 12.4923C53.3456 12.7587 53.4788 13.0773 53.4788 13.4479C53.4788 13.8186 53.3456 14.1371 53.0792 14.4035C52.8244 14.6699 52.5059 14.8031 52.1236 14.8031H51.2549ZM46.807 12.5792C46.4248 12.5792 46.1005 12.446 45.8341 12.1796C45.5792 11.9132 45.4518 11.5946 45.4518 11.224C45.4518 10.8533 45.5792 10.5348 45.8341 10.2684C46.1005 10.002 46.4248 9.86878 46.807 9.86878H47.6758C48.058 9.86878 48.3765 10.002 48.6313 10.2684C48.8978 10.5348 49.031 10.8533 49.031 11.224C49.031 11.5946 48.8978 11.9132 48.6313 12.1796C48.3765 12.446 48.058 12.5792 47.6758 12.5792H46.807ZM47.0676 10.3553C46.5696 10.3553 46.1758 10.2221 45.8862 9.95565C45.5966 9.68924 45.4518 9.37071 45.4518 9.00005C45.4518 8.62939 45.5966 8.31086 45.8862 8.04445C46.1758 7.77804 46.5696 7.64484 47.0676 7.64484H49.6391C50.1371 7.64484 50.531 7.77804 50.8205 8.04445C51.1101 8.31086 51.2549 8.62939 51.2549 9.00005C51.2549 9.37071 51.1101 9.68924 50.8205 9.95565C50.531 10.2221 50.1371 10.3553 49.6391 10.3553H47.0676ZM46.807 8.13132C46.4248 8.13132 46.1005 7.99812 45.8341 7.73171C45.5792 7.4653 45.4518 7.14677 45.4518 6.77611C45.4518 6.40546 45.5792 6.08692 45.8341 5.82051C46.1005 5.5541 46.4248 5.4209 46.807 5.4209H47.6758C48.058 5.4209 48.3765 5.5541 48.6313 5.82051C48.8978 6.08692 49.031 6.40546 49.031 6.77611C49.031 7.14677 48.8978 7.4653 48.6313 7.73171C48.3765 7.99812 48.058 8.13132 47.6758 8.13132H46.807ZM46.807 5.90739C46.4248 5.90739 46.1005 5.77418 45.8341 5.50777C45.5792 5.24136 45.4518 4.92283 45.4518 4.55217C45.4518 4.18152 45.5792 3.86298 45.8341 3.59657C46.1005 3.33017 46.4248 3.19696 46.807 3.19696H47.6758C48.058 3.19696 48.3765 3.33017 48.6313 3.59657C48.8978 3.86298 49.031 4.18152 49.031 4.55217C49.031 4.92283 48.8978 5.24136 48.6313 5.50777C48.3765 5.77418 48.058 5.90739 47.6758 5.90739H46.807ZM51.2549 5.90739C50.8727 5.90739 50.5483 5.77418 50.2819 5.50777C50.0271 5.24136 49.8997 4.92283 49.8997 4.55217C49.8997 4.18152 50.0271 3.86298 50.2819 3.59657C50.5483 3.33017 50.8727 3.19696 51.2549 3.19696H52.1236C52.5059 3.19696 52.8244 3.33017 53.0792 3.59657C53.3456 3.86298 53.4788 4.18152 53.4788 4.55217C53.4788 4.92283 53.3456 5.24136 53.0792 5.50777C52.8244 5.77418 52.5059 5.90739 52.1236 5.90739H51.2549ZM45.9557 3.68345C45.4576 3.68345 45.0638 3.55024 44.7742 3.28383C44.4846 3.01742 44.3398 2.69889 44.3398 2.32823C44.3398 1.95758 44.4846 1.63905 44.7742 1.37264C45.0638 1.10623 45.4576 0.973022 45.9557 0.973022H51.863C52.3611 0.973022 52.7549 1.10623 53.0445 1.37264C53.3341 1.63905 53.4788 1.95758 53.4788 2.32823C53.4788 2.69889 53.3341 3.01742 53.0445 3.28383C52.7549 3.55024 52.3611 3.68345 51.863 3.68345H45.9557Z" fill="#FEFEFE"/>
<path d="M39.2838 17.0271C38.7858 17.0271 38.3919 16.8939 38.1024 16.6275C37.8128 16.3611 37.668 16.0425 37.668 15.6719C37.668 15.3012 37.8128 14.9827 38.1024 14.7163C38.3919 14.4499 38.7858 14.3167 39.2838 14.3167H41.8553C42.3533 14.3167 42.7471 14.4499 43.0367 14.7163C43.3263 14.9827 43.4711 15.3012 43.4711 15.6719C43.4711 16.0425 43.3263 16.3611 43.0367 16.6275C42.7471 16.8939 42.3533 17.0271 41.8553 17.0271H39.2838ZM40.1352 14.8031C39.7529 14.8031 39.4286 14.6699 39.1622 14.4035C38.9074 14.1371 38.78 13.8186 38.78 13.4479C38.78 13.0773 38.9074 12.7587 39.1622 12.4923C39.4286 12.2259 39.7529 12.0927 40.1352 12.0927H41.0039C41.3861 12.0927 41.7047 12.2259 41.9595 12.4923C42.2259 12.7587 42.3591 13.0773 42.3591 13.4479C42.3591 13.8186 42.2259 14.1371 41.9595 14.4035C41.7047 14.6699 41.3861 14.8031 41.0039 14.8031H40.1352ZM40.1352 12.5792C39.7529 12.5792 39.4286 12.446 39.1622 12.1796C38.9074 11.9132 38.78 11.5946 38.78 11.224C38.78 10.8533 38.9074 10.5348 39.1622 10.2684C39.4286 10.002 39.7529 9.86878 40.1352 9.86878H41.0039C41.3861 9.86878 41.7047 10.002 41.9595 10.2684C42.2259 10.5348 42.3591 10.8533 42.3591 11.224C42.3591 11.5946 42.2259 11.9132 41.9595 12.1796C41.7047 12.446 41.3861 12.5792 41.0039 12.5792H40.1352ZM40.1352 10.3553C39.7529 10.3553 39.4286 10.2221 39.1622 9.95565C38.9074 9.68924 38.78 9.37071 38.78 9.00005C38.78 8.62939 38.9074 8.31086 39.1622 8.04445C39.4286 7.77804 39.7529 7.64484 40.1352 7.64484H41.0039C41.3861 7.64484 41.7047 7.77804 41.9595 8.04445C42.2259 8.31086 42.3591 8.62939 42.3591 9.00005C42.3591 9.37071 42.2259 9.68924 41.9595 9.95565C41.7047 10.2221 41.3861 10.3553 41.0039 10.3553H40.1352ZM40.1352 8.13132C39.7529 8.13132 39.4286 7.99812 39.1622 7.73171C38.9074 7.4653 38.78 7.14677 38.78 6.77611C38.78 6.40546 38.9074 6.08692 39.1622 5.82051C39.4286 5.5541 39.7529 5.4209 40.1352 5.4209H41.0039C41.3861 5.4209 41.7047 5.5541 41.9595 5.82051C42.2259 6.08692 42.3591 6.40546 42.3591 6.77611C42.3591 7.14677 42.2259 7.4653 41.9595 7.73171C41.7047 7.99812 41.3861 8.13132 41.0039 8.13132H40.1352ZM37.5985 5.90739C37.3089 5.90739 37.0599 5.77418 36.8514 5.50777C36.6545 5.24136 36.556 4.92283 36.556 4.55217C36.556 4.18152 36.6545 3.86298 36.8514 3.59657C37.0599 3.33017 37.3089 3.19696 37.5985 3.19696H37.9807C38.2703 3.19696 38.5136 3.33017 38.7105 3.59657C38.919 3.86298 39.0232 4.18152 39.0232 4.55217C39.0232 4.92283 38.919 5.24136 38.7105 5.50777C38.5136 5.77418 38.2703 5.90739 37.9807 5.90739H37.5985ZM40.1352 5.90739C39.7529 5.90739 39.4286 5.77418 39.1622 5.50777C38.9074 5.24136 38.78 4.92283 38.78 4.55217C38.78 4.18152 38.9074 3.86298 39.1622 3.59657C39.4286 3.33017 39.7529 3.19696 40.1352 3.19696H41.0039C41.3861 3.19696 41.7047 3.33017 41.9595 3.59657C42.2259 3.86298 42.3591 4.18152 42.3591 4.55217C42.3591 4.92283 42.2259 5.24136 41.9595 5.50777C41.7047 5.77418 41.3861 5.90739 41.0039 5.90739H40.1352ZM43.1583 5.90739C42.8688 5.90739 42.6197 5.77418 42.4112 5.50777C42.2143 5.24136 42.1159 4.92283 42.1159 4.55217C42.1159 4.18152 42.2143 3.86298 42.4112 3.59657C42.6197 3.33017 42.8688 3.19696 43.1583 3.19696H43.5406C43.8302 3.19696 44.0734 3.33017 44.2703 3.59657C44.4788 3.86298 44.5831 4.18152 44.5831 4.55217C44.5831 4.92283 44.4788 5.24136 44.2703 5.50777C44.0734 5.77418 43.8302 5.90739 43.5406 5.90739H43.1583ZM38.1719 3.68345C37.6738 3.68345 37.28 3.55024 36.9904 3.28383C36.7008 3.01742 36.556 2.69889 36.556 2.32823C36.556 1.95758 36.7008 1.63905 36.9904 1.37264C37.28 1.10623 37.6738 0.973022 38.1719 0.973022H42.9672C43.4653 0.973022 43.8591 1.10623 44.1487 1.37264C44.4383 1.63905 44.5831 1.95758 44.5831 2.32823C44.5831 2.69889 44.4383 3.01742 44.1487 3.28383C43.8591 3.55024 43.4653 3.68345 42.9672 3.68345H38.1719Z" fill="#FEFEFE"/>
<path d="M30.3881 17.0271C29.89 17.0271 29.4962 16.8939 29.2066 16.6275C28.917 16.3611 28.7722 16.0425 28.7722 15.6719C28.7722 15.3012 28.917 14.9827 29.2066 14.7163C29.4962 14.4499 29.89 14.3167 30.3881 14.3167H32.9595C33.4576 14.3167 33.8514 14.4499 34.141 14.7163C34.4305 14.9827 34.5753 15.3012 34.5753 15.6719C34.5753 16.0425 34.4305 16.3611 34.141 16.6275C33.8514 16.8939 33.4576 17.0271 32.9595 17.0271H30.3881ZM31.2394 14.8031C30.8572 14.8031 30.5329 14.6699 30.2665 14.4035C30.0116 14.1371 29.8842 13.8186 29.8842 13.4479C29.8842 13.0773 30.0116 12.7587 30.2665 12.4923C30.5329 12.2259 30.8572 12.0927 31.2394 12.0927H32.1082C32.4904 12.0927 32.8089 12.2259 33.0638 12.4923C33.3302 12.7587 33.4634 13.0773 33.4634 13.4479C33.4634 13.8186 33.3302 14.1371 33.0638 14.4035C32.8089 14.6699 32.4904 14.8031 32.1082 14.8031H31.2394ZM31.2394 12.5792C30.8572 12.5792 30.5329 12.446 30.2665 12.1796C30.0116 11.9132 29.8842 11.5946 29.8842 11.224C29.8842 10.8533 30.0116 10.5348 30.2665 10.2684C30.5329 10.002 30.8572 9.86878 31.2394 9.86878H32.1082C32.4904 9.86878 32.8089 10.002 33.0638 10.2684C33.3302 10.5348 33.4634 10.8533 33.4634 11.224C33.4634 11.5946 33.3302 11.9132 33.0638 12.1796C32.8089 12.446 32.4904 12.5792 32.1082 12.5792H31.2394ZM31.2394 10.3553C30.8572 10.3553 30.5329 10.2221 30.2665 9.95565C30.0116 9.68924 29.8842 9.37071 29.8842 9.00005C29.8842 8.62939 30.0116 8.31086 30.2665 8.04445C30.5329 7.77804 30.8572 7.64484 31.2394 7.64484H32.1082C32.4904 7.64484 32.8089 7.77804 33.0638 8.04445C33.3302 8.31086 33.4634 8.62939 33.4634 9.00005C33.4634 9.37071 33.3302 9.68924 33.0638 9.95565C32.8089 10.2221 32.4904 10.3553 32.1082 10.3553H31.2394ZM31.2394 8.13132C30.8572 8.13132 30.5329 7.99812 30.2665 7.73171C30.0116 7.4653 29.8842 7.14677 29.8842 6.77611C29.8842 6.40546 30.0116 6.08692 30.2665 5.82051C30.5329 5.5541 30.8572 5.4209 31.2394 5.4209H32.1082C32.4904 5.4209 32.8089 5.5541 33.0638 5.82051C33.3302 6.08692 33.4634 6.40546 33.4634 6.77611C33.4634 7.14677 33.3302 7.4653 33.0638 7.73171C32.8089 7.99812 32.4904 8.13132 32.1082 8.13132H31.2394ZM28.7027 5.90739C28.4132 5.90739 28.1641 5.77418 27.9556 5.50777C27.7587 5.24136 27.6603 4.92283 27.6603 4.55217C27.6603 4.18152 27.7587 3.86298 27.9556 3.59657C28.1641 3.33017 28.4132 3.19696 28.7027 3.19696H29.085C29.3746 3.19696 29.6178 3.33017 29.8147 3.59657C30.0232 3.86298 30.1275 4.18152 30.1275 4.55217C30.1275 4.92283 30.0232 5.24136 29.8147 5.50777C29.6178 5.77418 29.3746 5.90739 29.085 5.90739H28.7027ZM31.2394 5.90739C30.8572 5.90739 30.5329 5.77418 30.2665 5.50777C30.0116 5.24136 29.8842 4.92283 29.8842 4.55217C29.8842 4.18152 30.0116 3.86298 30.2665 3.59657C30.5329 3.33017 30.8572 3.19696 31.2394 3.19696H32.1082C32.4904 3.19696 32.8089 3.33017 33.0638 3.59657C33.3302 3.86298 33.4634 4.18152 33.4634 4.55217C33.4634 4.92283 33.3302 5.24136 33.0638 5.50777C32.8089 5.77418 32.4904 5.90739 32.1082 5.90739H31.2394ZM34.2626 5.90739C33.973 5.90739 33.724 5.77418 33.5155 5.50777C33.3186 5.24136 33.2201 4.92283 33.2201 4.55217C33.2201 4.18152 33.3186 3.86298 33.5155 3.59657C33.724 3.33017 33.973 3.19696 34.2626 3.19696H34.6448C34.9344 3.19696 35.1777 3.33017 35.3746 3.59657C35.5831 3.86298 35.6873 4.18152 35.6873 4.55217C35.6873 4.92283 35.5831 5.24136 35.3746 5.50777C35.1777 5.77418 34.9344 5.90739 34.6448 5.90739H34.2626ZM29.2761 3.68345C28.778 3.68345 28.3842 3.55024 28.0946 3.28383C27.8051 3.01742 27.6603 2.69889 27.6603 2.32823C27.6603 1.95758 27.8051 1.63905 28.0946 1.37264C28.3842 1.10623 28.778 0.973022 29.2761 0.973022H34.0715C34.5695 0.973022 34.9634 1.10623 35.2529 1.37264C35.5425 1.63905 35.6873 1.95758 35.6873 2.32823C35.6873 2.69889 35.5425 3.01742 35.2529 3.28383C34.9634 3.55024 34.5695 3.68345 34.0715 3.68345H29.2761Z" fill="#FEFEFE"/>
<path d="M21.2317 17.0271C20.8495 17.0271 20.5252 16.8939 20.2588 16.6275C20.0039 16.3611 19.8765 16.0425 19.8765 15.6719C19.8765 15.3012 20.0039 14.9827 20.2588 14.7163C20.5252 14.4499 20.8495 14.3167 21.2317 14.3167H23.2124C23.5947 14.3167 23.9132 14.4499 24.168 14.7163C24.4344 14.9827 24.5676 15.3012 24.5676 15.6719C24.5676 16.0425 24.4344 16.3611 24.168 16.6275C23.9132 16.8939 23.5947 17.0271 23.2124 17.0271H21.2317ZM20.1198 14.8031C19.7375 14.8031 19.4132 14.6699 19.1468 14.4035C18.892 14.1371 18.7646 13.8186 18.7646 13.4479C18.7646 13.0773 18.892 12.7587 19.1468 12.4923C19.4132 12.2259 19.7375 12.0927 20.1198 12.0927H20.9885C21.3707 12.0927 21.6893 12.2259 21.9441 12.4923C22.2105 12.7587 22.3437 13.0773 22.3437 13.4479C22.3437 13.8186 22.2105 14.1371 21.9441 14.4035C21.6893 14.6699 21.3707 14.8031 20.9885 14.8031H20.1198ZM23.4557 14.8031C23.0734 14.8031 22.7491 14.6699 22.4827 14.4035C22.2279 14.1371 22.1005 13.8186 22.1005 13.4479C22.1005 13.0773 22.2279 12.7587 22.4827 12.4923C22.7491 12.2259 23.0734 12.0927 23.4557 12.0927H24.3244C24.7066 12.0927 25.0252 12.2259 25.28 12.4923C25.5464 12.7587 25.6796 13.0773 25.6796 13.4479C25.6796 13.8186 25.5464 14.1371 25.28 14.4035C25.0252 14.6699 24.7066 14.8031 24.3244 14.8031H23.4557ZM19.0078 12.5792C18.6256 12.5792 18.307 12.446 18.0522 12.1796C17.7858 11.9132 17.6526 11.5946 17.6526 11.224C17.6526 10.8533 17.7858 10.5348 18.0522 10.2684C18.307 10.002 18.6256 9.86878 19.0078 9.86878H19.8765C20.2588 9.86878 20.5773 10.002 20.8321 10.2684C21.0985 10.5348 21.2317 10.8533 21.2317 11.224C21.2317 11.5946 21.0985 11.9132 20.8321 12.1796C20.5773 12.446 20.2588 12.5792 19.8765 12.5792H19.0078ZM24.5676 12.5792C24.1854 12.5792 23.8611 12.446 23.5947 12.1796C23.3398 11.9132 23.2124 11.5946 23.2124 11.224C23.2124 10.8533 23.3398 10.5348 23.5947 10.2684C23.8611 10.002 24.1854 9.86878 24.5676 9.86878H25.4364C25.8186 9.86878 26.1371 10.002 26.392 10.2684C26.6584 10.5348 26.7916 10.8533 26.7916 11.224C26.7916 11.5946 26.6584 11.9132 26.392 12.1796C26.1371 12.446 25.8186 12.5792 25.4364 12.5792H24.5676ZM19.0078 10.3553C18.6256 10.3553 18.307 10.2221 18.0522 9.95565C17.7858 9.68924 17.6526 9.37071 17.6526 9.00005C17.6526 8.62939 17.7858 8.31086 18.0522 8.04445C18.307 7.77804 18.6256 7.64484 19.0078 7.64484H19.8765C20.2588 7.64484 20.5773 7.77804 20.8321 8.04445C21.0985 8.31086 21.2317 8.62939 21.2317 9.00005C21.2317 9.37071 21.0985 9.68924 20.8321 9.95565C20.5773 10.2221 20.2588 10.3553 19.8765 10.3553H19.0078ZM24.5676 10.3553C24.1854 10.3553 23.8611 10.2221 23.5947 9.95565C23.3398 9.68924 23.2124 9.37071 23.2124 9.00005C23.2124 8.62939 23.3398 8.31086 23.5947 8.04445C23.8611 7.77804 24.1854 7.64484 24.5676 7.64484H25.4364C25.8186 7.64484 26.1371 7.77804 26.392 8.04445C26.6584 8.31086 26.7916 8.62939 26.7916 9.00005C26.7916 9.37071 26.6584 9.68924 26.392 9.95565C26.1371 10.2221 25.8186 10.3553 25.4364 10.3553H24.5676ZM19.0078 8.13132C18.6256 8.13132 18.307 7.99812 18.0522 7.73171C17.7858 7.4653 17.6526 7.14677 17.6526 6.77611C17.6526 6.40546 17.7858 6.08692 18.0522 5.82051C18.307 5.5541 18.6256 5.4209 19.0078 5.4209H19.8765C20.2588 5.4209 20.5773 5.5541 20.8321 5.82051C21.0985 6.08692 21.2317 6.40546 21.2317 6.77611C21.2317 7.14677 21.0985 7.4653 20.8321 7.73171C20.5773 7.99812 20.2588 8.13132 19.8765 8.13132H19.0078ZM24.5676 8.13132C24.1854 8.13132 23.8611 7.99812 23.5947 7.73171C23.3398 7.4653 23.2124 7.14677 23.2124 6.77611C23.2124 6.40546 23.3398 6.08692 23.5947 5.82051C23.8611 5.5541 24.1854 5.4209 24.5676 5.4209H25.4364C25.8186 5.4209 26.1371 5.5541 26.392 5.82051C26.6584 6.08692 26.7916 6.40546 26.7916 6.77611C26.7916 7.14677 26.6584 7.4653 26.392 7.73171C26.1371 7.99812 25.8186 8.13132 25.4364 8.13132H24.5676ZM20.1198 5.90739C19.7375 5.90739 19.4132 5.77418 19.1468 5.50777C18.892 5.24136 18.7646 4.92283 18.7646 4.55217C18.7646 4.18152 18.892 3.86298 19.1468 3.59657C19.4132 3.33017 19.7375 3.19696 20.1198 3.19696H20.9885C21.3707 3.19696 21.6893 3.33017 21.9441 3.59657C22.2105 3.86298 22.3437 4.18152 22.3437 4.55217C22.3437 4.92283 22.2105 5.24136 21.9441 5.50777C21.6893 5.77418 21.3707 5.90739 20.9885 5.90739H20.1198ZM23.4557 5.90739C23.0734 5.90739 22.7491 5.77418 22.4827 5.50777C22.2279 5.24136 22.1005 4.92283 22.1005 4.55217C22.1005 4.18152 22.2279 3.86298 22.4827 3.59657C22.7491 3.33017 23.0734 3.19696 23.4557 3.19696H24.3244C24.7066 3.19696 25.0252 3.33017 25.28 3.59657C25.5464 3.86298 25.6796 4.18152 25.6796 4.55217C25.6796 4.92283 25.5464 5.24136 25.28 5.50777C25.0252 5.77418 24.7066 5.90739 24.3244 5.90739H23.4557ZM21.2317 3.68345C20.8495 3.68345 20.5252 3.55024 20.2588 3.28383C20.0039 3.01742 19.8765 2.69889 19.8765 2.32823C19.8765 1.95758 20.0039 1.63905 20.2588 1.37264C20.5252 1.10623 20.8495 0.973022 21.2317 0.973022H23.2124C23.5947 0.973022 23.9132 1.10623 24.168 1.37264C24.4344 1.63905 24.5676 1.95758 24.5676 2.32823C24.5676 2.69889 24.4344 3.01742 24.168 3.28383C23.9132 3.55024 23.5947 3.68345 23.2124 3.68345H21.2317Z" fill="#FEFEFE"/>
<path d="M10.3727 17.0271C9.8746 17.0271 9.48077 16.8939 9.1912 16.6275C8.90162 16.3611 8.75684 16.0425 8.75684 15.6719C8.75684 15.3012 8.90162 14.9827 9.1912 14.7163C9.48077 14.4499 9.8746 14.3167 10.3727 14.3167H12.9441C13.4422 14.3167 13.836 14.4499 14.1256 14.7163C14.4151 14.9827 14.5599 15.3012 14.5599 15.6719C14.5599 16.0425 14.4151 16.3611 14.1256 16.6275C13.836 16.8939 13.4422 17.0271 12.9441 17.0271H10.3727ZM11.224 14.8031C10.8418 14.8031 10.5175 14.6699 10.251 14.4035C9.99622 14.1371 9.86881 13.8186 9.86881 13.4479C9.86881 13.0773 9.99622 12.7587 10.251 12.4923C10.5175 12.2259 10.8418 12.0927 11.224 12.0927H12.0927C12.475 12.0927 12.7935 12.2259 13.0483 12.4923C13.3148 12.7587 13.448 13.0773 13.448 13.4479C13.448 13.8186 13.3148 14.1371 13.0483 14.4035C12.7935 14.6699 12.475 14.8031 12.0927 14.8031H11.224ZM11.224 12.5792C10.8418 12.5792 10.5175 12.446 10.251 12.1796C9.99622 11.9132 9.86881 11.5946 9.86881 11.224C9.86881 10.8533 9.99622 10.5348 10.251 10.2684C10.5175 10.002 10.8418 9.86878 11.224 9.86878H12.0927C12.475 9.86878 12.7935 10.002 13.0483 10.2684C13.3148 10.5348 13.448 10.8533 13.448 11.224C13.448 11.5946 13.3148 11.9132 13.0483 12.1796C12.7935 12.446 12.475 12.5792 12.0927 12.5792H11.224ZM11.4846 10.3553C10.9866 10.3553 10.5927 10.2221 10.3032 9.95565C10.0136 9.68924 9.86881 9.37071 9.86881 9.00005C9.86881 8.62939 10.0136 8.31086 10.3032 8.04445C10.5927 7.77804 10.9866 7.64484 11.4846 7.64484H15.168C15.6661 7.64484 16.0599 7.77804 16.3495 8.04445C16.6391 8.31086 16.7839 8.62939 16.7839 9.00005C16.7839 9.37071 16.6391 9.68924 16.3495 9.95565C16.0599 10.2221 15.6661 10.3553 15.168 10.3553H11.4846ZM11.224 8.13132C10.8418 8.13132 10.5175 7.99812 10.251 7.73171C9.99622 7.4653 9.86881 7.14677 9.86881 6.77611C9.86881 6.40546 9.99622 6.08692 10.251 5.82051C10.5175 5.5541 10.8418 5.4209 11.224 5.4209H12.0927C12.475 5.4209 12.7935 5.5541 13.0483 5.82051C13.3148 6.08692 13.448 6.40546 13.448 6.77611C13.448 7.14677 13.3148 7.4653 13.0483 7.73171C12.7935 7.99812 12.475 8.13132 12.0927 8.13132H11.224ZM15.6719 8.13132C15.2897 8.13132 14.9653 7.99812 14.6989 7.73171C14.4441 7.4653 14.3167 7.14677 14.3167 6.77611C14.3167 6.40546 14.4441 6.08692 14.6989 5.82051C14.9653 5.5541 15.2897 5.4209 15.6719 5.4209H16.5406C16.9229 5.4209 17.2414 5.5541 17.4962 5.82051C17.7626 6.08692 17.8958 6.40546 17.8958 6.77611C17.8958 7.14677 17.7626 7.4653 17.4962 7.73171C17.2414 7.99812 16.9229 8.13132 16.5406 8.13132H15.6719ZM11.224 5.90739C10.8418 5.90739 10.5175 5.77418 10.251 5.50777C9.99622 5.24136 9.86881 4.92283 9.86881 4.55217C9.86881 4.18152 9.99622 3.86298 10.251 3.59657C10.5175 3.33017 10.8418 3.19696 11.224 3.19696H12.0927C12.475 3.19696 12.7935 3.33017 13.0483 3.59657C13.3148 3.86298 13.448 4.18152 13.448 4.55217C13.448 4.92283 13.3148 5.24136 13.0483 5.50777C12.7935 5.77418 12.475 5.90739 12.0927 5.90739H11.224ZM15.6719 5.90739C15.2897 5.90739 14.9653 5.77418 14.6989 5.50777C14.4441 5.24136 14.3167 4.92283 14.3167 4.55217C14.3167 4.18152 14.4441 3.86298 14.6989 3.59657C14.9653 3.33017 15.2897 3.19696 15.6719 3.19696H16.5406C16.9229 3.19696 17.2414 3.33017 17.4962 3.59657C17.7626 3.86298 17.8958 4.18152 17.8958 4.55217C17.8958 4.92283 17.7626 5.24136 17.4962 5.50777C17.2414 5.77418 16.9229 5.90739 16.5406 5.90739H15.6719ZM10.3727 3.68345C9.8746 3.68345 9.48077 3.55024 9.1912 3.28383C8.90162 3.01742 8.75684 2.69889 8.75684 2.32823C8.75684 1.95758 8.90162 1.63905 9.1912 1.37264C9.48077 1.10623 9.8746 0.973022 10.3727 0.973022H15.168C15.6661 0.973022 16.0599 1.10623 16.3495 1.37264C16.6391 1.63905 16.7839 1.95758 16.7839 2.32823C16.7839 2.69889 16.6391 3.01742 16.3495 3.28383C16.0599 3.55024 15.6661 3.68345 15.168 3.68345H10.3727Z" fill="#FEFEFE"/>
<path d="M3.70082 17.0271C3.20275 17.0271 2.80893 16.8939 2.51935 16.6275C2.22978 16.3611 2.08499 16.0425 2.08499 15.6719C2.08499 15.3012 2.22978 14.9827 2.51935 14.7163C2.80893 14.4499 3.20275 14.3167 3.70082 14.3167H6.27225C6.77032 14.3167 7.16414 14.4499 7.45372 14.7163C7.74329 14.9827 7.88808 15.3012 7.88808 15.6719C7.88808 16.0425 7.74329 16.3611 7.45372 16.6275C7.16414 16.8939 6.77032 17.0271 6.27225 17.0271H3.70082ZM2.32823 14.8031C1.946 14.8031 1.62167 14.6699 1.35526 14.4035C1.10044 14.1371 0.973022 13.8186 0.973022 13.4479C0.973022 13.0773 1.10044 12.7587 1.35526 12.4923C1.62167 12.2259 1.946 12.0927 2.32823 12.0927H3.19696C3.5792 12.0927 3.89773 12.2259 4.15256 12.4923C4.41897 12.7587 4.55217 13.0773 4.55217 13.4479C4.55217 13.8186 4.41897 14.1371 4.15256 14.4035C3.89773 14.6699 3.5792 14.8031 3.19696 14.8031H2.32823ZM6.77611 14.8031C6.39387 14.8031 6.06955 14.6699 5.80314 14.4035C5.54831 14.1371 5.4209 13.8186 5.4209 13.4479C5.4209 13.0773 5.54831 12.7587 5.80314 12.4923C6.06955 12.2259 6.39387 12.0927 6.77611 12.0927H7.64484C8.02708 12.0927 8.34561 12.2259 8.60044 12.4923C8.86684 12.7587 9.00005 13.0773 9.00005 13.4479C9.00005 13.8186 8.86684 14.1371 8.60044 14.4035C8.34561 14.6699 8.02708 14.8031 7.64484 14.8031H6.77611ZM5.66414 12.5792C5.2819 12.5792 4.95758 12.446 4.69117 12.1796C4.43634 11.9132 4.30893 11.5946 4.30893 11.224C4.30893 10.8533 4.43634 10.5348 4.69117 10.2684C4.95758 10.002 5.2819 9.86878 5.66414 9.86878H7.64484C8.02708 9.86878 8.34561 10.002 8.60044 10.2684C8.86684 10.5348 9.00005 10.8533 9.00005 11.224C9.00005 11.5946 8.86684 11.9132 8.60044 12.1796C8.34561 12.446 8.02708 12.5792 7.64484 12.5792H5.66414ZM3.4402 10.3553C3.05796 10.3553 2.73364 10.2221 2.46723 9.95565C2.2124 9.68924 2.08499 9.37071 2.08499 9.00005C2.08499 8.62939 2.2124 8.31086 2.46723 8.04445C2.73364 7.77804 3.05796 7.64484 3.4402 7.64484H5.4209C5.80314 7.64484 6.12167 7.77804 6.3765 8.04445C6.64291 8.31086 6.77611 8.62939 6.77611 9.00005C6.77611 9.37071 6.64291 9.68924 6.3765 9.95565C6.12167 10.2221 5.80314 10.3553 5.4209 10.3553H3.4402ZM2.32823 8.13132C1.946 8.13132 1.62167 7.99812 1.35526 7.73171C1.10044 7.4653 0.973022 7.14677 0.973022 6.77611C0.973022 6.40546 1.10044 6.08692 1.35526 5.82051C1.62167 5.5541 1.946 5.4209 2.32823 5.4209H4.30893C4.69117 5.4209 5.0097 5.5541 5.26453 5.82051C5.53094 6.08692 5.66414 6.40546 5.66414 6.77611C5.66414 7.14677 5.53094 7.4653 5.26453 7.73171C5.0097 7.99812 4.69117 8.13132 4.30893 8.13132H2.32823ZM2.32823 5.90739C1.946 5.90739 1.62167 5.77418 1.35526 5.50777C1.10044 5.24136 0.973022 4.92283 0.973022 4.55217C0.973022 4.18152 1.10044 3.86298 1.35526 3.59657C1.62167 3.33017 1.946 3.19696 2.32823 3.19696H3.19696C3.5792 3.19696 3.89773 3.33017 4.15256 3.59657C4.41897 3.86298 4.55217 4.18152 4.55217 4.55217C4.55217 4.92283 4.41897 5.24136 4.15256 5.50777C3.89773 5.77418 3.5792 5.90739 3.19696 5.90739H2.32823ZM6.77611 5.90739C6.39387 5.90739 6.06955 5.77418 5.80314 5.50777C5.54831 5.24136 5.4209 4.92283 5.4209 4.55217C5.4209 4.18152 5.54831 3.86298 5.80314 3.59657C6.06955 3.33017 6.39387 3.19696 6.77611 3.19696H7.64484C8.02708 3.19696 8.34561 3.33017 8.60044 3.59657C8.86684 3.86298 9.00005 4.18152 9.00005 4.55217C9.00005 4.92283 8.86684 5.24136 8.60044 5.50777C8.34561 5.77418 8.02708 5.90739 7.64484 5.90739H6.77611ZM3.70082 3.68345C3.20275 3.68345 2.80893 3.55024 2.51935 3.28383C2.22978 3.01742 2.08499 2.69889 2.08499 2.32823C2.08499 1.95758 2.22978 1.63905 2.51935 1.37264C2.80893 1.10623 3.20275 0.973022 3.70082 0.973022H6.27225C6.77032 0.973022 7.16414 1.10623 7.45372 1.37264C7.74329 1.63905 7.88808 1.95758 7.88808 2.32823C7.88808 2.69889 7.74329 3.01742 7.45372 3.28383C7.16414 3.55024 6.77032 3.68345 6.27225 3.68345H3.70082Z" fill="#FEFEFE"/>
<path d="M57.9267 15.6718C57.9267 15.3012 57.7935 14.9826 57.5271 14.7162C57.4709 14.6575 57.4113 14.6056 57.349 14.5598C57.4113 14.5141 57.4709 14.4622 57.5271 14.4035C57.7935 14.1371 57.9267 13.8185 57.9267 13.4479C57.9267 13.0772 57.7935 12.7587 57.5271 12.4923C57.4709 12.4336 57.4113 12.3817 57.349 12.3359C57.4113 12.2901 57.4709 12.2383 57.5271 12.1795C57.6449 12.0617 57.7366 11.9335 57.8023 11.7953C57.8652 11.9335 57.9529 12.0617 58.0657 12.1795C58.3321 12.4459 58.6564 12.5792 59.0386 12.5792H59.1009C58.8974 12.8272 58.7954 13.1166 58.7954 13.4479C58.7954 13.8185 58.9228 14.1371 59.1776 14.4035C59.444 14.6699 59.7684 14.8031 60.1506 14.8031H60.2129C60.0094 15.0511 59.9074 15.3405 59.9074 15.6718C59.9074 16.0425 60.0348 16.361 60.2896 16.6274C60.556 16.8938 60.8803 17.027 61.2626 17.027H62.1313C62.5135 17.027 62.8321 16.8938 63.0869 16.6274C63.3533 16.361 63.4865 16.0425 63.4865 15.6718C63.4865 15.3012 63.3533 14.9826 63.0869 14.7162C62.8321 14.4498 62.5135 14.3166 62.1313 14.3166H62.0552C62.2679 14.0686 62.3745 13.7791 62.3745 13.4479C62.3745 13.0772 62.2413 12.7587 61.9749 12.4923C61.7201 12.2259 61.4016 12.0927 61.0193 12.0927H60.9432C61.156 11.8447 61.2626 11.5552 61.2626 11.2239C61.2626 10.8533 61.1294 10.5347 60.863 10.2683C60.7979 10.2004 60.7287 10.1412 60.6554 10.0905C60.7166 10.0501 60.7743 10.0052 60.8282 9.9556C61.1178 9.68919 61.2626 9.37066 61.2626 9C61.2626 8.66871 61.1467 8.37928 60.9154 8.13127H61.0193C61.4016 8.13127 61.7201 7.99807 61.9749 7.73166C62.2413 7.46525 62.3745 7.14672 62.3745 6.77606C62.3745 6.40541 62.2413 6.08687 61.9749 5.82046C61.9188 5.76174 61.8592 5.70987 61.7968 5.66409C61.8592 5.61831 61.9188 5.56645 61.9749 5.50772C62.2413 5.24131 62.3745 4.92278 62.3745 4.55212C62.3745 4.18147 62.2413 3.86293 61.9749 3.59653C61.7201 3.33012 61.4016 3.19691 61.0193 3.19691H60.9154C61.1467 2.9489 61.2626 2.65947 61.2626 2.32819C61.2626 1.95753 61.1178 1.639 60.8282 1.37259C60.5386 1.10618 60.1448 0.972973 59.6467 0.972973V0C60.3215 0 60.9737 0.184366 61.487 0.656567C61.9629 1.09446 62.2355 1.66712 62.2355 2.32819C62.2355 2.40511 62.2316 2.48081 62.2243 2.55528C62.381 2.6519 62.5277 2.7697 62.6629 2.90847H62.663C63.1085 3.35397 63.3475 3.91869 63.3475 4.55212C63.3475 4.95496 63.2506 5.32985 63.0656 5.66409C63.2506 5.99834 63.3475 6.37322 63.3475 6.77606C63.3475 7.4095 63.1085 7.97421 62.663 8.41972L62.6629 8.41958C62.5277 8.55836 62.381 8.67614 62.2243 8.77277C62.2316 8.84728 62.2355 8.92303 62.2355 9C62.2355 9.40304 62.1339 9.77307 61.947 10.0999C62.1363 10.4372 62.2355 10.8163 62.2355 11.2239C62.2355 11.3008 62.2319 11.3767 62.225 11.4514C62.3814 11.548 62.5279 11.6656 62.6629 11.8042H62.663C63.1085 12.2497 63.3475 12.8144 63.3475 13.4479C63.3475 13.5248 63.3439 13.6006 63.3369 13.6754C63.4934 13.7719 63.6399 13.8896 63.7748 14.0282H63.775C64.2205 14.4737 64.4595 15.0384 64.4595 15.6718C64.4595 16.3053 64.2205 16.87 63.775 17.3155L63.7748 17.3153C63.3311 17.7711 62.761 18 62.1313 18H61.2626C60.6265 18 60.0534 17.7673 59.6015 17.3155L59.5939 17.3077L59.5865 17.3C59.1574 16.8514 58.9344 16.2915 58.9344 15.6718C58.9344 15.5965 58.9377 15.5221 58.9443 15.4487C58.9246 15.4368 58.9051 15.4246 58.8857 15.4121C58.8948 15.4973 58.8996 15.5839 58.8996 15.6718C58.8996 16.3053 58.6606 16.87 58.2151 17.3155L58.215 17.3153C57.7712 17.7711 57.2011 18 56.5715 18H54.5908C53.9611 18 53.3908 17.7711 52.9471 17.3153V17.3155C52.8175 17.1859 52.7056 17.0461 52.6117 16.8975C52.7753 16.8322 52.9196 16.7423 53.0444 16.6274C53.1778 16.5047 53.2801 16.3706 53.352 16.2258C53.4182 16.3707 53.5124 16.5046 53.6352 16.6274C53.89 16.8938 54.2085 17.027 54.5908 17.027H56.5715C56.9537 17.027 57.2722 16.8938 57.5271 16.6274C57.7935 16.361 57.9267 16.0425 57.9267 15.6718ZM53.3745 11.2239C53.3745 10.8163 53.471 10.4345 53.6592 10.0932C53.4747 9.76807 53.3745 9.40028 53.3745 9C53.3745 8.59968 53.4746 8.23182 53.6592 7.90663C53.471 7.56543 53.3745 7.18369 53.3745 6.77606C53.3745 6.37581 53.4676 6.00056 53.6491 5.66409C53.534 5.45055 53.4545 5.22138 53.4117 4.98011C53.4562 4.8461 53.4788 4.70352 53.4788 4.55212C53.4788 4.18147 53.3456 3.86293 53.0792 3.59653C53.0142 3.52855 52.9449 3.46934 52.8716 3.41871C52.9328 3.37832 52.9905 3.33342 53.0444 3.28378C53.1811 3.15809 53.285 3.02058 53.3572 2.87168C53.4293 3.02058 53.5333 3.15809 53.6699 3.28378C53.9211 3.51492 54.2509 3.6456 54.659 3.6762C54.4515 3.9258 54.3475 4.21764 54.3475 4.55212C54.3475 4.92278 54.4749 5.24131 54.7298 5.50772C54.7885 5.56642 54.8502 5.61833 54.9145 5.66409C54.8502 5.70986 54.7885 5.76177 54.7298 5.82046C54.4749 6.08687 54.3475 6.40541 54.3475 6.77606C54.3475 7.14672 54.4749 7.46525 54.7298 7.73166C54.7992 7.80108 54.8726 7.86127 54.9499 7.9126C54.8905 7.95218 54.8344 7.99605 54.7819 8.0444C54.4923 8.31081 54.3475 8.62934 54.3475 9C54.3475 9.37066 54.4923 9.68919 54.7819 9.9556C54.8344 10.004 54.8905 10.0478 54.9499 10.0874C54.8726 10.1387 54.7992 10.1989 54.7298 10.2683C54.4749 10.5347 54.3475 10.8533 54.3475 11.2239C54.3475 11.5946 54.4749 11.9131 54.7298 12.1795C54.7885 12.2382 54.8502 12.2901 54.9145 12.3359C54.8502 12.3817 54.7885 12.4336 54.7298 12.4923C54.4749 12.7587 54.3475 13.0772 54.3475 13.4479C54.3475 13.7791 54.4495 14.0686 54.6531 14.3166H54.5908C54.2085 14.3166 53.89 14.4498 53.6352 14.7162C53.5124 14.839 53.4182 14.973 53.352 15.1179C53.2801 14.973 53.1778 14.839 53.0444 14.7162C52.9905 14.6666 52.9328 14.6216 52.8716 14.5812C52.9449 14.5305 53.0142 14.4714 53.0792 14.4035C53.3456 14.1371 53.4788 13.8185 53.4788 13.4479C53.4788 13.2965 53.4562 13.1539 53.4117 13.0199C53.4545 12.7786 53.534 12.5494 53.6491 12.3359C53.4676 11.9994 53.3745 11.6242 53.3745 11.2239ZM57.989 10.3552C57.9124 10.4485 57.8501 10.5475 57.8023 10.6526C57.7524 10.5475 57.6872 10.4485 57.6071 10.3552H57.989ZM59.1009 3.6834C58.8974 3.9314 58.7954 4.22085 58.7954 4.55212C58.7954 4.92278 58.9228 5.24131 59.1776 5.50772C59.2363 5.56642 59.2981 5.61833 59.3624 5.66409C59.2981 5.70986 59.2363 5.76177 59.1776 5.82046C58.9228 6.08687 58.7954 6.40541 58.7954 6.77606C58.7954 7.10733 58.8974 7.39679 59.1009 7.64479H57.6073C57.8201 7.39679 57.9267 7.10733 57.9267 6.77606C57.9267 6.40541 57.7935 6.08687 57.5271 5.82046C57.4709 5.76174 57.4113 5.70987 57.349 5.66409C57.4113 5.61831 57.4709 5.56645 57.5271 5.50772C57.7935 5.24131 57.9267 4.92278 57.9267 4.55212C57.9267 4.22083 57.82 3.93141 57.6071 3.6834H59.1009ZM54.8514 0.972973C54.3533 0.972973 53.9595 1.10618 53.6699 1.37259C53.5333 1.49825 53.4293 1.6357 53.3572 1.78455C53.285 1.6357 53.181 1.49825 53.0444 1.37259C52.9229 1.26081 52.7829 1.17291 52.6247 1.10803C52.732 0.945179 52.8615 0.794221 53.0112 0.656567C53.5244 0.184366 54.1766 0 54.8514 0V0.972973ZM59.6467 0V0.972973H54.8514V0H59.6467Z" fill="#6C01B0"/>
<path d="M43.471 15.6718C43.471 15.5263 43.4483 15.3889 43.4037 15.2594C43.493 14.7715 43.7414 14.3442 44.1154 14.0002L44.1638 13.9568C44.2685 13.8656 44.3786 13.786 44.4933 13.7169C44.4837 13.6286 44.4787 13.5389 44.4787 13.4479C44.4787 13.0476 44.5718 12.6724 44.7533 12.3359C44.5718 11.9994 44.4787 11.6242 44.4787 11.2239C44.4787 10.8163 44.5752 10.4345 44.7634 10.0932C44.5789 9.76807 44.4787 9.40028 44.4787 9C44.4787 8.59968 44.5788 8.23182 44.7634 7.90663C44.5752 7.56543 44.4787 7.18369 44.4787 6.77606C44.4787 6.37581 44.5718 6.00056 44.7533 5.66409C44.6434 5.46022 44.5658 5.24212 44.5218 5.01282C44.5625 4.86941 44.583 4.71588 44.583 4.55212C44.583 4.18147 44.4787 3.86293 44.2702 3.59653C44.2018 3.50392 44.1275 3.42768 44.0479 3.36726C44.0827 3.34095 44.1164 3.31339 44.1486 3.28378C44.2852 3.15809 44.3892 3.02058 44.4614 2.87168C44.5335 3.02058 44.6375 3.15809 44.7741 3.28378C45.0253 3.51492 45.3551 3.6456 45.7632 3.6762C45.5557 3.9258 45.4517 4.21764 45.4517 4.55212C45.4517 4.92278 45.5791 5.24131 45.8339 5.50772C45.8926 5.56642 45.9544 5.61833 46.0187 5.66409C45.9544 5.70986 45.8926 5.76177 45.8339 5.82046C45.5791 6.08687 45.4517 6.40541 45.4517 6.77606C45.4517 7.14672 45.5791 7.46525 45.8339 7.73166C45.9034 7.80108 45.9768 7.86127 46.0541 7.9126C45.9947 7.95218 45.9386 7.99605 45.8861 8.0444C45.5965 8.31081 45.4517 8.62934 45.4517 9C45.4517 9.37066 45.5965 9.68919 45.8861 9.9556C45.9386 10.004 45.9947 10.0478 46.0541 10.0874C45.9768 10.1387 45.9034 10.1989 45.8339 10.2683C45.5791 10.5347 45.4517 10.8533 45.4517 11.2239C45.4517 11.5946 45.5791 11.9131 45.8339 12.1795C45.8926 12.2382 45.9544 12.2901 46.0187 12.3359C45.9544 12.3817 45.8926 12.4336 45.8339 12.4923C45.5791 12.7587 45.4517 13.0772 45.4517 13.4479C45.4517 13.7823 45.5558 14.0741 45.7632 14.3237C45.355 14.3543 45.0253 14.4851 44.7741 14.7162C44.4845 14.9826 44.3397 15.3012 44.3397 15.6718C44.3397 16.0425 44.4845 16.361 44.7741 16.6274C45.0637 16.8938 45.4575 17.027 45.9556 17.027H51.8629C52.361 17.027 52.7548 16.8938 53.0444 16.6274C53.1778 16.5047 53.28 16.3706 53.352 16.2258C53.4181 16.3707 53.5123 16.5046 53.6351 16.6274C53.7626 16.7607 53.9061 16.8607 54.0655 16.9273C53.9631 17.0766 53.8418 17.2158 53.7031 17.3434C53.1898 17.8156 52.5376 18 51.8629 18H45.9556C45.2808 18 44.6286 17.8156 44.1154 17.3434C43.7414 16.9994 43.493 16.5721 43.4037 16.0841C43.4483 15.9546 43.471 15.8173 43.471 15.6718ZM53.4787 13.4479C53.4787 13.0772 53.3455 12.7587 53.0791 12.4923C52.8243 12.2259 52.5058 12.0927 52.1235 12.0927V11.1197C52.7532 11.1197 53.3233 11.3485 53.767 11.8042H53.7672C54.1086 12.1456 54.3285 12.5571 54.4128 13.0158C54.3694 13.151 54.3475 13.295 54.3475 13.4479C54.3475 13.6007 54.3694 13.7447 54.4128 13.8798C54.3827 14.0433 54.3355 14.2008 54.2716 14.3512C54.0276 14.4064 53.8154 14.5278 53.6351 14.7162C53.5123 14.839 53.4181 14.973 53.352 15.1179C53.28 14.973 53.1778 14.839 53.0444 14.7162C52.9904 14.6666 52.9328 14.6216 52.8716 14.5812C52.9449 14.5305 53.0141 14.4714 53.0791 14.4035C53.3455 14.1371 53.4787 13.8185 53.4787 13.4479ZM51.2548 9C51.2548 8.62934 51.11 8.31081 50.8204 8.0444C50.5309 7.77799 50.137 7.64479 49.639 7.64479H48.7115C48.9243 7.39679 49.0309 7.10733 49.0309 6.77606C49.0309 6.40541 48.8977 6.08687 48.6312 5.82046C48.5751 5.76174 48.5155 5.70987 48.4532 5.66409C48.5155 5.61831 48.5751 5.56645 48.6312 5.50772C48.8977 5.24131 49.0309 4.92278 49.0309 4.55212C49.0309 4.22083 48.9242 3.93141 48.7113 3.6834H50.2051C50.0016 3.9314 49.8996 4.22085 49.8996 4.55212C49.8996 4.92278 50.027 5.24131 50.2818 5.50772C50.5482 5.77413 50.8726 5.90734 51.2548 5.90734H52.1235C52.5058 5.90734 52.8243 5.77413 53.0791 5.50772C53.3455 5.24131 53.4787 4.92278 53.4787 4.55212C53.4787 4.18147 53.3455 3.86293 53.0791 3.59653C53.0141 3.52855 52.9449 3.46934 52.8716 3.41871C52.9328 3.37832 52.9904 3.33342 53.0444 3.28378C53.181 3.15809 53.2849 3.02058 53.3571 2.87168C53.4293 3.02058 53.5332 3.15809 53.6699 3.28378C53.8316 3.43263 54.026 3.5398 54.2529 3.60548C54.3264 3.76888 54.3798 3.94088 54.4128 4.12007C54.3694 4.25524 54.3475 4.39921 54.3475 4.55212C54.3475 4.70499 54.3694 4.84891 54.4128 4.98404C54.3285 5.44279 54.1086 5.85433 53.7672 6.19578L53.767 6.19564C53.3233 6.65141 52.7532 6.88031 52.1235 6.88031H51.2548C50.7924 6.88031 50.3633 6.75718 49.9899 6.51639C49.996 6.5738 50 6.63185 50.0021 6.69055C50.545 6.74793 51.0587 6.94156 51.4792 7.32838L51.5232 7.36978C51.9719 7.80211 52.2278 8.35957 52.2278 9C52.2278 9.66107 51.9551 10.2337 51.4792 10.6716C51.0587 11.0584 50.545 11.2519 50.0021 11.3093C50.0001 11.368 49.996 11.4261 49.9899 11.4835C50.3633 11.2427 50.7924 11.1197 51.2548 11.1197V12.0927C50.8726 12.0927 50.5482 12.2259 50.2818 12.4923C50.027 12.7587 49.8996 13.0772 49.8996 13.4479C49.8996 13.7791 50.0016 14.0686 50.2051 14.3166H48.7115C48.9243 14.0686 49.0309 13.7791 49.0309 13.4479C49.0309 13.0772 48.8977 12.7587 48.6312 12.4923C48.5751 12.4336 48.5155 12.3817 48.4532 12.3359C48.5155 12.2901 48.5751 12.2383 48.6312 12.1795C48.8977 11.9131 49.0309 11.5946 49.0309 11.2239C49.0309 10.8926 48.9242 10.6032 48.7113 10.3552H49.639C50.137 10.3552 50.5309 10.222 50.8204 9.9556C51.11 9.68919 51.2548 9.37066 51.2548 9ZM52.1235 11.1197V12.0927H51.2548V11.1197H52.1235ZM45.9556 0.972973C45.4575 0.972973 45.0637 1.10618 44.7741 1.37259C44.6375 1.49825 44.5335 1.6357 44.4614 1.78455C44.3892 1.6357 44.2852 1.49825 44.1486 1.37259C44.0271 1.26081 43.8871 1.17291 43.7289 1.10803C43.8362 0.945179 43.9657 0.794221 44.1154 0.656567C44.6286 0.184366 45.2808 0 45.9556 0V0.972973ZM51.8629 0C52.5376 0 53.1898 0.184366 53.7031 0.656567C53.8527 0.794203 53.9821 0.945203 54.0894 1.10803C53.9313 1.17291 53.7913 1.26084 53.6699 1.37259C53.5333 1.49825 53.4293 1.6357 53.3571 1.78455C53.285 1.6357 53.181 1.49825 53.0444 1.37259C52.7548 1.10618 52.361 0.972973 51.8629 0.972973V0ZM51.8629 0V0.972973H45.9556V0H51.8629Z" fill="#6C01B0"/>
<path d="M36.6949 15.6718C36.6949 15.0107 36.9676 14.4381 37.4435 14.0002L37.492 13.9568C37.5967 13.8656 37.7068 13.786 37.8214 13.7169C37.8118 13.6286 37.8069 13.5389 37.8069 13.4479C37.8069 13.0476 37.9 12.6724 38.0815 12.3359C37.9 11.9994 37.8069 11.6242 37.8069 11.2239C37.8069 10.8237 37.9 10.4484 38.0815 10.112C37.9 9.77551 37.8069 9.40025 37.8069 9C37.8069 8.59975 37.9 8.22449 38.0815 7.88803C37.9158 7.58094 37.8239 7.24154 37.8091 6.88031H37.5984C36.9572 6.88031 36.4431 6.56486 36.085 6.10741L36.0768 6.09683L36.0689 6.0861C35.8309 5.76406 35.6862 5.40465 35.6222 5.02544C35.6653 4.87842 35.6872 4.72071 35.6872 4.55212C35.6872 4.38354 35.6653 4.22583 35.6222 4.0788C35.663 3.83713 35.7363 3.60348 35.846 3.38247C35.7382 3.18322 35.6616 2.96849 35.6199 2.74042C35.6645 2.61099 35.6872 2.47368 35.6872 2.32819C35.6872 2.18265 35.6645 2.04528 35.6199 1.91581C35.7092 1.42786 35.9576 1.00061 36.3315 0.656567C36.8448 0.184366 37.497 0 38.1718 0V0.972973C37.6737 0.972973 37.2799 1.10618 36.9903 1.37259C36.7007 1.639 36.5559 1.95753 36.5559 2.32819C36.5559 2.69884 36.7007 3.01737 36.9903 3.28378C37.0213 3.31233 37.0538 3.33906 37.0872 3.36455C37.0036 3.42537 36.9248 3.50255 36.8513 3.59653C36.6544 3.86293 36.5559 4.18147 36.5559 4.55212C36.5559 4.92278 36.6544 5.24131 36.8513 5.50772C37.0598 5.77413 37.3088 5.90734 37.5984 5.90734H37.9806C38.2702 5.90734 38.5135 5.77413 38.7104 5.50772C38.7957 5.39869 38.8632 5.28076 38.9136 5.15426C38.9752 5.28076 39.0578 5.39868 39.1621 5.50772C39.2208 5.56642 39.2825 5.61833 39.3468 5.66409C39.2825 5.70986 39.2208 5.76177 39.1621 5.82046C38.9073 6.08687 38.7799 6.40541 38.7799 6.77606C38.7799 7.14672 38.9073 7.46525 39.1621 7.73166C39.2208 7.79035 39.2825 7.84227 39.3468 7.88803C39.2825 7.93379 39.2208 7.98571 39.1621 8.0444C38.9073 8.31081 38.7799 8.62934 38.7799 9C38.7799 9.37066 38.9073 9.68919 39.1621 9.9556C39.2208 10.0143 39.2825 10.0662 39.3468 10.112C39.2825 10.1577 39.2208 10.2096 39.1621 10.2683C38.9073 10.5347 38.7799 10.8533 38.7799 11.2239C38.7799 11.5946 38.9073 11.9131 39.1621 12.1795C39.2208 12.2382 39.2825 12.2901 39.3468 12.3359C39.2825 12.3817 39.2208 12.4336 39.1621 12.4923C38.9073 12.7587 38.7799 13.0772 38.7799 13.4479C38.7799 13.7823 38.8839 14.0741 39.0914 14.3237C38.6832 14.3543 38.3535 14.4851 38.1023 14.7162C37.8127 14.9826 37.6679 15.3012 37.6679 15.6718C37.6679 16.0425 37.8127 16.361 38.1023 16.6274C38.3918 16.8938 38.7857 17.027 39.2837 17.027H41.8552C42.3532 17.027 42.747 16.8938 43.0366 16.6274C43.3262 16.361 43.471 16.0425 43.471 15.6718C43.471 15.3012 43.3262 14.9826 43.0366 14.7162C42.7827 14.4826 42.4485 14.3513 42.0342 14.3226C42.2505 14.0732 42.359 13.7819 42.359 13.4479C42.359 13.0772 42.2258 12.7587 41.9594 12.4923C41.9032 12.4336 41.8437 12.3817 41.7813 12.3359C41.8437 12.2901 41.9032 12.2383 41.9594 12.1795C42.2258 11.9131 42.359 11.5946 42.359 11.2239C42.359 10.8533 42.2258 10.5347 41.9594 10.2683C41.9032 10.2096 41.8437 10.1577 41.7813 10.112C41.8437 10.0662 41.9032 10.0143 41.9594 9.9556C42.2258 9.68919 42.359 9.37066 42.359 9C42.359 8.62934 42.2258 8.31081 41.9594 8.0444C41.9032 7.98568 41.8437 7.93381 41.7813 7.88803C41.8437 7.84225 41.9032 7.79039 41.9594 7.73166C42.2258 7.46525 42.359 7.14672 42.359 6.77606C42.359 6.40541 42.2258 6.08687 41.9594 5.82046C41.9032 5.76174 41.8437 5.70987 41.7813 5.66409C41.8437 5.61831 41.9032 5.56645 41.9594 5.50772C42.0684 5.39871 42.1547 5.28073 42.2191 5.15426C42.2667 5.28078 42.3305 5.39867 42.4111 5.50772C42.6196 5.77413 42.8687 5.90734 43.1582 5.90734H43.5405C43.8301 5.90734 44.0733 5.77413 44.2702 5.50772C44.4787 5.24131 44.583 4.92278 44.583 4.55212C44.583 4.18147 44.4787 3.86293 44.2702 3.59653C44.2018 3.50392 44.1275 3.42768 44.0479 3.36726C44.0826 3.34095 44.1164 3.31339 44.1486 3.28378C44.2852 3.15809 44.3892 3.02058 44.4613 2.87168C44.5335 3.02058 44.6374 3.15809 44.7741 3.28378C44.9429 3.4391 45.1473 3.54872 45.3869 3.61349C45.4487 3.77352 45.4927 3.93938 45.5204 4.10948C45.4747 4.24771 45.4517 4.39521 45.4517 4.55212C45.4517 4.70899 45.4747 4.85644 45.5204 4.99463C45.455 5.39597 45.2977 5.7736 45.0365 6.10741C44.6867 6.56932 44.1764 6.88031 43.5405 6.88031H43.3297C43.3144 7.24368 43.219 7.58279 43.0501 7.88803C43.235 8.22228 43.332 8.59716 43.332 9C43.332 9.40284 43.235 9.77772 43.0501 10.112C43.235 10.4462 43.332 10.8211 43.332 11.2239C43.332 11.6268 43.235 12.0017 43.0501 12.3359C43.235 12.6702 43.332 13.045 43.332 13.4479C43.332 13.539 43.3269 13.6287 43.3171 13.7168C43.4497 13.7966 43.5763 13.8906 43.6954 14.0002C44.0693 14.3442 44.3176 14.7715 44.4069 15.2594C44.3623 15.3889 44.3397 15.5263 44.3397 15.6718C44.3397 15.8173 44.3623 15.9546 44.4069 16.0841C44.3176 16.5721 44.0693 16.9994 43.6954 17.3434C43.1821 17.8156 42.5299 18 41.8552 18H39.2837C38.609 18 37.9568 17.8156 37.4435 17.3434C36.9676 16.9055 36.6949 16.3329 36.6949 15.6718ZM39.0854 3.6834C39.0164 3.76745 38.9592 3.85623 38.9136 3.94985C38.8763 3.85625 38.8295 3.76744 38.7731 3.6834H39.0854ZM42.352 3.6834C42.2986 3.76746 42.2543 3.85622 42.2191 3.94985C42.1714 3.85624 42.1116 3.76744 42.0395 3.6834H42.352ZM42.9671 0C43.6419 0 44.2941 0.184366 44.8073 0.656567C44.9569 0.794203 45.0864 0.945203 45.1936 1.10803C45.0355 1.17291 44.8955 1.26084 44.7741 1.37259C44.6375 1.49825 44.5335 1.6357 44.4613 1.78455C44.3892 1.6357 44.2852 1.49825 44.1486 1.37259C43.859 1.10618 43.4652 0.972973 42.9671 0.972973V0ZM42.9671 0V0.972973H38.1718V0H42.9671Z" fill="#6C01B0"/>
<path d="M27.7992 15.6718C27.7992 15.0107 28.0719 14.4381 28.5478 14.0002L28.5963 13.9568C28.701 13.8656 28.8111 13.786 28.9257 13.7169C28.9161 13.6286 28.9112 13.5389 28.9112 13.4479C28.9112 13.0476 29.0043 12.6724 29.1858 12.3359C29.0043 11.9994 28.9112 11.6242 28.9112 11.2239C28.9112 10.8237 29.0043 10.4484 29.1858 10.112C29.0043 9.77551 28.9112 9.40025 28.9112 9C28.9112 8.59975 29.0043 8.22449 29.1858 7.88803C29.0201 7.58094 28.9282 7.24154 28.9134 6.88031H28.7027C28.0615 6.88031 27.5474 6.56486 27.1894 6.10741L27.1811 6.09683L27.1732 6.0861C26.838 5.63254 26.6873 5.10503 26.6873 4.55212C26.6873 4.1416 26.7703 3.7451 26.9503 3.38247C26.7796 3.06697 26.6873 2.71257 26.6873 2.32819C26.6873 1.66712 26.9599 1.09446 27.4359 0.656567C27.9491 0.184366 28.6013 0 29.2761 0V0.972973C28.778 0.972973 28.3842 1.10618 28.0946 1.37259C27.805 1.639 27.6602 1.95753 27.6602 2.32819C27.6602 2.69884 27.805 3.01737 28.0946 3.28378C28.1256 3.31233 28.1581 3.33906 28.1915 3.36455C28.1079 3.42537 28.0291 3.50255 27.9556 3.59653C27.7587 3.86293 27.6602 4.18147 27.6602 4.55212C27.6602 4.92278 27.7587 5.24131 27.9556 5.50772C28.1641 5.77413 28.4131 5.90734 28.7027 5.90734H29.0849C29.3745 5.90734 29.6178 5.77413 29.8147 5.50772C29.9 5.39869 29.9675 5.28076 30.0179 5.15426C30.0795 5.28076 30.1621 5.39868 30.2664 5.50772C30.3251 5.56642 30.3868 5.61833 30.4511 5.66409C30.3868 5.70986 30.3251 5.76177 30.2664 5.82046C30.0116 6.08687 29.8842 6.40541 29.8842 6.77606C29.8842 7.14672 30.0116 7.46525 30.2664 7.73166C30.3251 7.79035 30.3868 7.84227 30.4511 7.88803C30.3868 7.93379 30.3251 7.98571 30.2664 8.0444C30.0116 8.31081 29.8842 8.62934 29.8842 9C29.8842 9.37066 30.0116 9.68919 30.2664 9.9556C30.3251 10.0143 30.3868 10.0662 30.4511 10.112C30.3868 10.1577 30.3251 10.2096 30.2664 10.2683C30.0116 10.5347 29.8842 10.8533 29.8842 11.2239C29.8842 11.5946 30.0116 11.9131 30.2664 12.1795C30.3251 12.2382 30.3868 12.2901 30.4511 12.3359C30.3868 12.3817 30.3251 12.4336 30.2664 12.4923C30.0116 12.7587 29.8842 13.0772 29.8842 13.4479C29.8842 13.7823 29.9882 14.0741 30.1957 14.3237C29.7875 14.3543 29.4578 14.4851 29.2066 14.7162C28.917 14.9826 28.7722 15.3012 28.7722 15.6718C28.7722 16.0425 28.917 16.361 29.2066 16.6274C29.4961 16.8938 29.89 17.027 30.388 17.027H32.9595C33.4575 17.027 33.8513 16.8938 34.1409 16.6274C34.4305 16.361 34.5753 16.0425 34.5753 15.6718C34.5753 15.3012 34.4305 14.9826 34.1409 14.7162C33.887 14.4826 33.5528 14.3513 33.1385 14.3226C33.3548 14.0732 33.4633 13.7819 33.4633 13.4479C33.4633 13.0772 33.3301 12.7587 33.0637 12.4923C33.0075 12.4336 32.948 12.3817 32.8856 12.3359C32.948 12.2901 33.0075 12.2383 33.0637 12.1795C33.3301 11.9131 33.4633 11.5946 33.4633 11.2239C33.4633 10.8533 33.3301 10.5347 33.0637 10.2683C33.0075 10.2096 32.948 10.1577 32.8856 10.112C32.948 10.0662 33.0075 10.0143 33.0637 9.9556C33.3301 9.68919 33.4633 9.37066 33.4633 9C33.4633 8.62934 33.3301 8.31081 33.0637 8.0444C33.0075 7.98568 32.948 7.93381 32.8856 7.88803C32.948 7.84225 33.0075 7.79039 33.0637 7.73166C33.3301 7.46525 33.4633 7.14672 33.4633 6.77606C33.4633 6.40541 33.3301 6.08687 33.0637 5.82046C33.0075 5.76174 32.948 5.70987 32.8856 5.66409C32.948 5.61831 33.0075 5.56645 33.0637 5.50772C33.1727 5.39871 33.259 5.28073 33.3234 5.15426C33.371 5.28078 33.4348 5.39867 33.5154 5.50772C33.7239 5.77413 33.973 5.90734 34.2625 5.90734H34.6448C34.9344 5.90734 35.1776 5.77413 35.3745 5.50772C35.583 5.24131 35.6873 4.92278 35.6873 4.55212C35.6873 4.18147 35.583 3.86293 35.3745 3.59653C35.3061 3.50392 35.2318 3.42768 35.1522 3.36726C35.1869 3.34095 35.2207 3.31339 35.2529 3.28378C35.5425 3.01737 35.6873 2.69884 35.6873 2.32819C35.6873 1.95753 35.5425 1.639 35.2529 1.37259C34.9633 1.10618 34.5695 0.972973 34.0714 0.972973V0C34.7462 0 35.3984 0.184366 35.9116 0.656567C36.2856 1.00061 36.5339 1.42787 36.6232 1.91581C36.5785 2.04526 36.556 2.18267 36.556 2.32819C36.556 2.47366 36.5786 2.61101 36.6232 2.74042C36.5808 2.9719 36.5027 3.18966 36.3923 3.39142C36.5022 3.60764 36.5765 3.8367 36.6186 4.07432C36.577 4.22261 36.556 4.38183 36.556 4.55212C36.556 4.72241 36.577 4.88164 36.6186 5.02992C36.5499 5.41809 36.3943 5.78341 36.1408 6.10741C35.791 6.56932 35.2808 6.88031 34.6448 6.88031H34.434C34.4187 7.24368 34.3233 7.58279 34.1544 7.88803C34.3394 8.22228 34.4363 8.59716 34.4363 9C34.4363 9.40284 34.3394 9.77772 34.1544 10.112C34.3394 10.4462 34.4363 10.8211 34.4363 11.2239C34.4363 11.6268 34.3394 12.0017 34.1544 12.3359C34.3394 12.6702 34.4363 13.045 34.4363 13.4479C34.4363 13.539 34.4312 13.6287 34.4214 13.7168C34.554 13.7966 34.6806 13.8906 34.7997 14.0002C35.2756 14.4381 35.5483 15.0107 35.5483 15.6718C35.5483 16.3329 35.2756 16.9055 34.7997 17.3434C34.2864 17.8156 33.6342 18 32.9595 18H30.388C29.7133 18 29.0611 17.8156 28.5478 17.3434C28.0719 16.9055 27.7992 16.3329 27.7992 15.6718ZM30.1897 3.6834C30.1207 3.76745 30.0635 3.85623 30.0179 3.94985C29.9806 3.85625 29.9338 3.76744 29.8774 3.6834H30.1897ZM33.4563 3.6834C33.4029 3.76746 33.3586 3.85622 33.3234 3.94985C33.2757 3.85624 33.2159 3.76744 33.1438 3.6834H33.4563ZM34.0714 0V0.972973H29.2761V0H34.0714Z" fill="#6C01B0"/>
<path d="M16.6796 11.2239C16.6796 10.8211 16.7764 10.4462 16.9614 10.112C16.8417 9.89568 16.7587 9.66241 16.7153 9.41549C16.7606 9.28511 16.7838 9.14672 16.7838 9C16.7838 8.85323 16.7607 8.71479 16.7153 8.58437C16.7451 8.41503 16.7935 8.25211 16.8596 8.09666C17.1036 8.04153 17.3159 7.92014 17.4962 7.73166C17.6158 7.61207 17.7083 7.48187 17.7742 7.34128C17.8401 7.48187 17.9326 7.61207 18.0522 7.73166C18.1083 7.79036 18.1678 7.84227 18.2301 7.88803C18.1678 7.9338 18.1083 7.9857 18.0522 8.0444C17.7857 8.31081 17.6525 8.62934 17.6525 9C17.6525 9.37066 17.7857 9.68919 18.0522 9.9556C18.1083 10.0143 18.1678 10.0662 18.2301 10.112C18.1678 10.1577 18.1083 10.2096 18.0522 10.2683C17.7857 10.5347 17.6525 10.8533 17.6525 11.2239C17.6525 11.5946 17.7857 11.9131 18.0522 12.1795C18.307 12.4459 18.6255 12.5792 19.0078 12.5792H19.0701C18.8665 12.8272 18.7645 13.1166 18.7645 13.4479C18.7645 13.8185 18.8919 14.1371 19.1467 14.4035C19.4132 14.6699 19.7375 14.8031 20.1197 14.8031H20.182C19.9785 15.0511 19.8765 15.3405 19.8765 15.6718C19.8765 16.0425 20.0039 16.361 20.2587 16.6274C20.5251 16.8938 20.8494 17.027 21.2317 17.027H23.2124C23.5946 17.027 23.9132 16.8938 24.168 16.6274C24.4344 16.361 24.5676 16.0425 24.5676 15.6718C24.5676 15.3405 24.4609 15.0511 24.2481 14.8031H24.3244C24.7066 14.8031 25.0251 14.6699 25.28 14.4035C25.5464 14.1371 25.6796 13.8185 25.6796 13.4479C25.6796 13.1166 25.5729 12.8272 25.36 12.5792H25.4363C25.8186 12.5792 26.1371 12.4459 26.3919 12.1795C26.6583 11.9131 26.7915 11.5946 26.7915 11.2239C26.7915 10.8533 26.6583 10.5347 26.3919 10.2683C26.3357 10.2096 26.2762 10.1577 26.2138 10.112C26.2762 10.0662 26.3357 10.0143 26.3919 9.9556C26.6583 9.68919 26.7915 9.37066 26.7915 9C26.7915 8.62934 26.6583 8.31081 26.3919 8.0444C26.3357 7.98568 26.2762 7.93381 26.2138 7.88803C26.2762 7.84225 26.3357 7.79039 26.3919 7.73166C26.6583 7.46525 26.7915 7.14672 26.7915 6.77606C26.7915 6.40541 26.6583 6.08687 26.3919 5.82046C26.1371 5.55405 25.8186 5.42085 25.4363 5.42085H25.3602C25.573 5.17285 25.6796 4.88339 25.6796 4.55212C25.6796 4.18147 25.5464 3.86293 25.28 3.59653C25.0251 3.33012 24.7066 3.19691 24.3244 3.19691H24.2482C24.461 2.94891 24.5676 2.65945 24.5676 2.32819C24.5676 1.95753 24.4344 1.639 24.168 1.37259C23.9132 1.10618 23.5946 0.972973 23.2124 0.972973V0C23.842 0 24.4122 0.228903 24.8559 0.684665L24.856 0.684529C25.3015 1.13003 25.5406 1.69475 25.5406 2.32819C25.5406 2.40506 25.537 2.48092 25.53 2.55568C25.6864 2.65223 25.8329 2.7699 25.9679 2.90847H25.968C26.4135 3.35397 26.6525 3.91869 26.6525 4.55212C26.6525 4.629 26.6489 4.70486 26.642 4.77962C26.7984 4.87617 26.9449 4.99383 27.0798 5.13241H27.08C27.5255 5.57791 27.7645 6.14263 27.7645 6.77606C27.7645 7.1789 27.6676 7.55378 27.4826 7.88803C27.6676 8.22228 27.7645 8.59716 27.7645 9C27.7645 9.40284 27.6676 9.77772 27.4826 10.112C27.6676 10.4462 27.7645 10.8211 27.7645 11.2239C27.7645 11.8574 27.5255 12.4221 27.08 12.8676L27.0798 12.8675C26.9449 13.006 26.7984 13.1237 26.642 13.2202C26.6489 13.295 26.6525 13.371 26.6525 13.4479C26.6525 14.0813 26.4135 14.646 25.968 15.0915L25.9679 15.0914C25.8329 15.23 25.6864 15.3476 25.53 15.4442C25.537 15.519 25.5406 15.5949 25.5406 15.6718C25.5406 16.3053 25.3015 16.87 24.856 17.3155L24.8559 17.3153C24.4122 17.7711 23.842 18 23.2124 18H21.2317C20.5956 18 20.0225 17.7673 19.5707 17.3155L19.5631 17.3077L19.5556 17.3C19.1265 16.8514 18.9035 16.2915 18.9035 15.6718C18.9035 15.5965 18.9069 15.5221 18.9134 15.4487C18.7513 15.351 18.5991 15.2319 18.4587 15.0915L18.4511 15.0838L18.4436 15.0761C18.0146 14.6275 17.7915 14.0676 17.7915 13.4479C17.7915 13.371 17.7949 13.295 17.8017 13.2201C17.6454 13.1236 17.4989 13.006 17.3641 12.8675V12.8676C16.9186 12.4221 16.6796 11.8574 16.6796 11.2239ZM22.2193 14.0192C22.2671 14.1243 22.3294 14.2233 22.406 14.3166H22.0243C22.1043 14.2233 22.1694 14.1243 22.2193 14.0192ZM22.2394 9C22.2394 8.59975 22.3325 8.22449 22.514 7.88803C22.3325 7.55157 22.2394 7.17631 22.2394 6.77606C22.2394 6.70076 22.2428 6.62635 22.2493 6.55291C22.2387 6.54653 22.2282 6.54006 22.2177 6.5335C22.2098 6.53849 22.202 6.54354 22.1941 6.54843C22.2011 6.62323 22.2047 6.69914 22.2047 6.77606C22.2047 7.1789 22.1077 7.55378 21.9227 7.88803C22.1077 8.22228 22.2047 8.59716 22.2047 9C22.2047 9.40284 22.1077 9.77772 21.9227 10.112C22.1077 10.4462 22.2047 10.8211 22.2047 11.2239C22.2047 11.3008 22.2011 11.3767 22.1941 11.4514C22.202 11.4563 22.2098 11.4614 22.2177 11.4664C22.2282 11.4598 22.2387 11.4533 22.2493 11.447C22.2428 11.3736 22.2394 11.2992 22.2394 11.2239C22.2394 10.8237 22.3325 10.4484 22.514 10.112C22.3325 9.77551 22.2394 9.40025 22.2394 9ZM21.2317 0.972973C20.8494 0.972973 20.5251 1.10618 20.2587 1.37259C20.0039 1.639 19.8765 1.95753 19.8765 2.32819C19.8765 2.65946 19.9785 2.94891 20.182 3.19691H20.1197C19.7375 3.19691 19.4132 3.33012 19.1467 3.59653C18.8919 3.86293 18.7645 4.18147 18.7645 4.55212C18.7645 4.8834 18.8665 5.17285 19.0701 5.42085H19.0078C18.6255 5.42085 18.307 5.55405 18.0522 5.82046C17.9326 5.94002 17.8401 6.07016 17.7742 6.21071C17.7083 6.07016 17.6157 5.94002 17.4962 5.82046C17.44 5.76174 17.3804 5.70987 17.3181 5.66409C17.3804 5.61831 17.44 5.56645 17.4962 5.50772C17.7626 5.24131 17.8958 4.92278 17.8958 4.55212C17.8958 4.40072 17.8732 4.25815 17.8287 4.12414C17.9084 3.67443 18.1158 3.26667 18.4436 2.92394L18.4511 2.9162L18.4587 2.90847C18.5991 2.76805 18.7513 2.64889 18.9134 2.5512C18.9069 2.47781 18.9035 2.40344 18.9035 2.32819C18.9035 1.70848 19.1265 1.14857 19.5556 0.700003L19.5631 0.692266L19.5707 0.684529C20.0225 0.232693 20.5956 0 21.2317 0V0.972973ZM22.406 3.6834C22.3294 3.77669 22.2671 3.87573 22.2193 3.9808C22.1694 3.87571 22.1042 3.7767 22.0241 3.6834H22.406ZM23.2124 0V0.972973H21.2317V0H23.2124ZM23.2124 9C23.2124 9.37066 23.3398 9.68919 23.5946 9.9556C23.6533 10.0143 23.715 10.0662 23.7794 10.112C23.715 10.1577 23.6533 10.2096 23.5946 10.2683C23.3398 10.5347 23.2124 10.8533 23.2124 11.2239C23.2124 11.5552 23.3144 11.8447 23.5179 12.0927H23.4556C23.0734 12.0927 22.7491 12.2259 22.4827 12.4923C22.3699 12.6102 22.2822 12.7383 22.2193 12.8766C22.1536 12.7383 22.0619 12.6101 21.944 12.4923C21.6892 12.2259 21.3707 12.0927 20.9884 12.0927H20.9123C21.1251 11.8447 21.2317 11.5552 21.2317 11.2239C21.2317 10.8533 21.0985 10.5347 20.8321 10.2683C20.7759 10.2096 20.7163 10.1577 20.654 10.112C20.7163 10.0662 20.7759 10.0143 20.8321 9.9556C21.0985 9.68919 21.2317 9.37066 21.2317 9C21.2317 8.62934 21.0985 8.31081 20.8321 8.0444C20.7759 7.98568 20.7163 7.93381 20.654 7.88803C20.7163 7.84225 20.7759 7.79039 20.8321 7.73166C21.0985 7.46525 21.2317 7.14672 21.2317 6.77606C21.2317 6.44477 21.125 6.15535 20.9122 5.90734H20.9884C21.3707 5.90734 21.6892 5.77413 21.944 5.50772C22.0619 5.38985 22.1536 5.26172 22.2193 5.12345C22.2822 5.26173 22.3699 5.38985 22.4827 5.50772C22.7491 5.77413 23.0734 5.90734 23.4556 5.90734H23.5179C23.3144 6.15534 23.2124 6.44479 23.2124 6.77606C23.2124 7.14672 23.3398 7.46525 23.5946 7.73166C23.6533 7.79035 23.715 7.84227 23.7794 7.88803C23.715 7.93379 23.6533 7.98571 23.5946 8.0444C23.3398 8.31081 23.2124 8.62934 23.2124 9Z" fill="#6C01B0"/>
<path d="M7.888 15.6718C7.888 15.5263 7.86532 15.3889 7.82068 15.2594C7.8522 15.0872 7.90356 14.9226 7.97325 14.7664C8.21333 14.7103 8.42241 14.5895 8.60036 14.4035C8.86677 14.1371 8.99997 13.8185 8.99997 13.4479C8.99997 13.2965 8.97737 13.1539 8.93292 13.0199C8.97568 12.7786 9.05514 12.5494 9.17033 12.3359C9.05514 12.1224 8.97568 11.8932 8.93292 11.6519C8.97737 11.5179 8.99997 11.3753 8.99997 11.2239C8.99997 11.0725 8.97737 10.93 8.93292 10.796C8.97692 10.5476 9.05968 10.3121 9.18037 10.0932C8.99584 9.76807 8.89573 9.40028 8.89573 9C8.89573 8.59968 8.99581 8.23182 9.18037 7.90663C8.99221 7.56543 8.89573 7.18369 8.89573 6.77606C8.89573 6.37581 8.98883 6.00056 9.17033 5.66409C9.05514 5.45055 8.97568 5.22138 8.93292 4.98011C8.97737 4.8461 8.99997 4.70352 8.99997 4.55212C8.99997 4.18147 8.86677 3.86293 8.60036 3.59653C8.4224 3.41048 8.21334 3.28955 7.97325 3.23342C7.90356 3.0773 7.85219 2.91266 7.82068 2.74042C7.86529 2.61099 7.888 2.47368 7.888 2.32819C7.888 2.18265 7.86532 2.04528 7.82068 1.91581C7.90998 1.42786 8.15839 1.00061 8.53236 0.656567C9.04562 0.184366 9.69783 0 10.3726 0V0.972973C9.87449 0.972973 9.48067 1.10618 9.19109 1.37259C8.90152 1.639 8.75673 1.95753 8.75673 2.32819C8.75673 2.69884 8.90152 3.01737 9.19109 3.28378C9.44233 3.51492 9.77205 3.6456 10.1802 3.6762C9.9727 3.9258 9.8687 4.21764 9.8687 4.55212C9.8687 4.92278 9.99611 5.24131 10.2509 5.50772C10.3096 5.56642 10.3714 5.61833 10.4357 5.66409C10.3714 5.70986 10.3096 5.76177 10.2509 5.82046C9.99611 6.08687 9.8687 6.40541 9.8687 6.77606C9.8687 7.14672 9.99611 7.46525 10.2509 7.73166C10.3204 7.80108 10.3938 7.86127 10.4711 7.9126C10.4117 7.95218 10.3556 7.99605 10.3031 8.0444C10.0135 8.31081 9.8687 8.62934 9.8687 9C9.8687 9.37066 10.0135 9.68919 10.3031 9.9556C10.3556 10.004 10.4117 10.0478 10.4711 10.0874C10.3938 10.1387 10.3204 10.1989 10.2509 10.2683C9.99611 10.5347 9.8687 10.8533 9.8687 11.2239C9.8687 11.5946 9.99611 11.9131 10.2509 12.1795C10.3096 12.2382 10.3714 12.2901 10.4357 12.3359C10.3714 12.3817 10.3096 12.4336 10.2509 12.4923C9.99611 12.7587 9.8687 13.0772 9.8687 13.4479C9.8687 13.7823 9.97274 14.0741 10.1802 14.3237C9.77204 14.3543 9.44233 14.4851 9.19109 14.7162C8.90152 14.9826 8.75673 15.3012 8.75673 15.6718C8.75673 16.0425 8.90152 16.361 9.19109 16.6274C9.48067 16.8938 9.87449 17.027 10.3726 17.027H12.944C13.4421 17.027 13.8359 16.8938 14.1255 16.6274C14.415 16.361 14.5598 16.0425 14.5598 15.6718C14.5598 15.3012 14.415 14.9826 14.1255 14.7162C13.8715 14.4826 13.5374 14.3513 13.123 14.3226C13.3393 14.0732 13.4479 13.7819 13.4479 13.4479C13.4479 13.0772 13.3146 12.7587 13.0482 12.4923C12.9921 12.4336 12.9325 12.3817 12.8701 12.3359C12.9325 12.2901 12.9921 12.2383 13.0482 12.1795C13.3146 11.9131 13.4479 11.5946 13.4479 11.2239C13.4479 10.8926 13.3412 10.6032 13.1283 10.3552H15.1679C15.666 10.3552 16.0598 10.222 16.3494 9.9556C16.639 9.68919 16.7838 9.37066 16.7838 9C16.7838 8.66871 16.6679 8.37928 16.4365 8.13127H16.5405C16.9228 8.13127 17.2413 7.99807 17.4961 7.73166C17.6157 7.61207 17.7082 7.48187 17.7741 7.34128C17.84 7.48187 17.9325 7.61207 18.0521 7.73166C18.1082 7.79036 18.1677 7.84227 18.2301 7.88803C18.1677 7.9338 18.1082 7.9857 18.0521 8.0444C17.7857 8.31081 17.6525 8.62934 17.6525 9C17.6525 9.14945 17.6745 9.29032 17.7178 9.42282C17.6268 9.90642 17.3794 10.33 17.0081 10.6716C16.4949 11.1438 15.8427 11.3282 15.1679 11.3282H14.4185C14.4032 11.6916 14.3078 12.0307 14.1389 12.3359C14.3239 12.6702 14.4208 13.045 14.4208 13.4479C14.4208 13.539 14.4157 13.6287 14.4059 13.7168C14.5385 13.7966 14.6651 13.8906 14.7842 14.0002L14.8282 14.0416C15.2769 14.4739 15.5328 15.0314 15.5328 15.6718C15.5328 16.3122 15.2769 16.8697 14.8282 17.302L14.7842 17.3434C14.2709 17.8156 13.6187 18 12.944 18H10.3726C9.69783 18 9.04562 17.8156 8.53236 17.3434C8.15836 16.9994 7.90996 16.5721 7.82068 16.0841C7.86529 15.9546 7.888 15.8173 7.888 15.6718ZM14.6221 3.6834C14.4186 3.9314 14.3166 4.22085 14.3166 4.55212C14.3166 4.92278 14.444 5.24131 14.6988 5.50772C14.7575 5.56642 14.8192 5.61833 14.8836 5.66409C14.8192 5.70986 14.7575 5.76177 14.6988 5.82046C14.444 6.08687 14.3166 6.40541 14.3166 6.77606C14.3166 7.10733 14.4186 7.39679 14.6221 7.64479H13.1285C13.3413 7.39679 13.4479 7.10733 13.4479 6.77606C13.4479 6.40541 13.3146 6.08687 13.0482 5.82046C12.9921 5.76174 12.9325 5.70987 12.8701 5.66409C12.9325 5.61831 12.9921 5.56645 13.0482 5.50772C13.3146 5.24131 13.4479 4.92278 13.4479 4.55212C13.4479 4.22083 13.3412 3.93141 13.1283 3.6834H14.6221ZM17.8957 4.55212C17.8957 4.18147 17.7625 3.86293 17.4961 3.59653C17.2413 3.33012 16.9228 3.19691 16.5405 3.19691H16.4365C16.6679 2.9489 16.7838 2.65947 16.7838 2.32819C16.7838 1.95753 16.639 1.639 16.3494 1.37259C16.0598 1.10618 15.666 0.972973 15.1679 0.972973V0C15.8427 0 16.4949 0.184366 17.0081 0.656567C17.4841 1.09446 17.7567 1.66712 17.7567 2.32819C17.7567 2.40511 17.7527 2.48081 17.7455 2.55528C17.9022 2.6519 18.0489 2.7697 18.184 2.90847H18.1842C18.5256 3.24988 18.7455 3.66137 18.8297 4.12007C18.7864 4.25524 18.7645 4.39921 18.7645 4.55212C18.7645 4.70499 18.7864 4.84891 18.8297 4.98404C18.7997 5.14755 18.7525 5.30501 18.6886 5.45546C18.4446 5.51061 18.2324 5.63202 18.0521 5.82046C17.9325 5.94002 17.84 6.07016 17.7741 6.21071C17.7082 6.07016 17.6157 5.94002 17.4961 5.82046C17.4399 5.76174 17.3804 5.70987 17.318 5.66409C17.3804 5.61831 17.4399 5.56645 17.4961 5.50772C17.7625 5.24131 17.8957 4.92278 17.8957 4.55212ZM15.1679 0V0.972973H10.3726V0H15.1679Z" fill="#6C01B0"/>
<path d="M0 13.4479C0 12.8282 0.223019 12.2683 0.652087 11.8197L0.659553 11.812L0.667154 11.8042C1.11899 11.3524 1.69211 11.1197 2.32819 11.1197V12.0927C1.94595 12.0927 1.62162 12.2259 1.35521 12.4923C1.10039 12.7587 0.972973 13.0772 0.972973 13.4479C0.972973 13.8185 1.10039 14.1371 1.35521 14.4035C1.62162 14.6699 1.94595 14.8031 2.32819 14.8031H2.4323C2.20093 15.0511 2.08494 15.3405 2.08494 15.6718C2.08494 16.0425 2.22973 16.361 2.5193 16.6274C2.80888 16.8938 3.2027 17.027 3.70077 17.027H6.2722C6.77027 17.027 7.16409 16.8938 7.45367 16.6274C7.74324 16.361 7.88803 16.0425 7.88803 15.6718C7.88803 15.3405 7.77214 15.0511 7.54081 14.8031H7.64479C8.02703 14.8031 8.34556 14.6699 8.60039 14.4035C8.8668 14.1371 9 13.8185 9 13.4479C9 13.0772 8.8668 12.7587 8.60039 12.4923C8.54421 12.4336 8.48466 12.3817 8.4223 12.3359C8.48466 12.2901 8.54421 12.2383 8.60039 12.1795C8.8668 11.9131 9 11.5946 9 11.2239C9 10.8533 8.8668 10.5347 8.60039 10.2683C8.34556 10.0019 8.02703 9.86873 7.64479 9.86873H6.45667C6.66946 9.62073 6.77606 9.33127 6.77606 9C6.77606 8.62934 6.64286 8.31081 6.37645 8.0444C6.12162 7.77799 5.80309 7.64479 5.42085 7.64479H5.3447C5.5575 7.39679 5.66409 7.10733 5.66409 6.77606C5.66409 6.40541 5.53089 6.08687 5.26448 5.82046C5.00965 5.55405 4.69112 5.42085 4.30888 5.42085H4.23273C4.44553 5.17285 4.55212 4.88339 4.55212 4.55212C4.55212 4.22083 4.44543 3.93141 4.2326 3.6834H5.7264C5.52285 3.9314 5.42085 4.22085 5.42085 4.55212C5.42085 4.92278 5.54826 5.24131 5.80309 5.50772C6.0695 5.77413 6.39382 5.90734 6.77606 5.90734H7.64479C8.02703 5.90734 8.34556 5.77413 8.60039 5.50772C8.8668 5.24131 9 4.92278 9 4.55212C9 4.18147 8.8668 3.86293 8.60039 3.59653C8.34556 3.33012 8.02703 3.19691 7.64479 3.19691H7.54081C7.77214 2.9489 7.88803 2.65947 7.88803 2.32819C7.88803 1.95753 7.74324 1.639 7.45367 1.37259C7.16409 1.10618 6.77027 0.972973 6.2722 0.972973V0C6.94693 0 7.59914 0.184366 8.11241 0.656567C8.48636 1.00061 8.73464 1.42787 8.82395 1.91581C8.77931 2.04526 8.75676 2.18267 8.75676 2.32819C8.75676 2.69884 8.90154 3.01737 9.19112 3.28378C9.3529 3.43263 9.54725 3.5398 9.77412 3.60548C9.84764 3.76888 9.9011 3.94088 9.93402 4.12007C9.89065 4.25524 9.86873 4.39921 9.86873 4.55212C9.86873 4.70499 9.89067 4.84891 9.93402 4.98404C9.84978 5.44279 9.62989 5.85433 9.28844 6.19578L9.28831 6.19564C8.84458 6.65141 8.27445 6.88031 7.64479 6.88031H6.77606C6.7286 6.88031 6.6815 6.87882 6.63476 6.87624C6.63303 6.91902 6.63041 6.96146 6.62648 7.00356C6.78292 7.1001 6.92945 7.21777 7.06437 7.35634H7.06451C7.4859 7.77774 7.72234 8.30581 7.74673 8.89779C8.33592 8.92125 8.86866 9.14929 9.28831 9.58028H9.28844C9.62986 9.9217 9.84976 10.3332 9.93402 10.7919C9.89065 10.9271 9.86873 11.071 9.86873 11.2239C9.86873 11.3768 9.89067 11.5207 9.93402 11.6559C9.88979 11.8967 9.80809 12.1244 9.69104 12.3359C9.80807 12.5474 9.88979 12.775 9.93402 13.0158C9.89065 13.151 9.86873 13.295 9.86873 13.4479C9.86873 13.6007 9.89067 13.7447 9.93402 13.8798C9.9011 14.059 9.84753 14.2311 9.77398 14.3945C9.54717 14.4602 9.35287 14.5674 9.19112 14.7162C8.90154 14.9826 8.75676 15.3012 8.75676 15.6718C8.75676 15.8173 8.77934 15.9546 8.82395 16.0841C8.73466 16.5721 8.4864 16.9994 8.11241 17.3434C7.59914 17.8156 6.94693 18 6.2722 18H3.70077C3.04711 18 2.41456 17.827 1.90903 17.3869L1.86057 17.3434C1.3846 16.9055 1.11197 16.3329 1.11197 15.6718C1.11197 15.5964 1.11557 15.5222 1.12256 15.4492C0.960215 15.3514 0.807769 15.2321 0.667154 15.0915L0.659553 15.0838L0.652087 15.0761C0.223019 14.6275 0 14.0676 0 13.4479ZM0 6.77606C0 6.37579 0.0932162 6.00057 0.274735 5.66409C0.0932162 5.32762 0 4.9524 0 4.55212C0 3.93242 0.223019 3.37251 0.652087 2.92394L0.659553 2.9162L0.667154 2.90847C0.807787 2.76783 0.960192 2.64843 1.12256 2.55066C1.11558 2.47769 1.11197 2.40352 1.11197 2.32819C1.11197 1.66712 1.3846 1.09446 1.86057 0.656567L1.90903 0.61313C2.41456 0.172996 3.04711 0 3.70077 0V0.972973C3.2027 0.972973 2.80888 1.10618 2.5193 1.37259C2.22973 1.639 2.08494 1.95753 2.08494 2.32819C2.08494 2.65947 2.20084 2.9489 2.43216 3.19691H2.32819C1.94595 3.19691 1.62162 3.33012 1.35521 3.59653C1.10039 3.86293 0.972973 4.18147 0.972973 4.55212C0.972973 4.92278 1.10039 5.24131 1.35521 5.50772C1.41391 5.56642 1.47564 5.61833 1.53995 5.66409C1.47564 5.70986 1.41391 5.76177 1.35521 5.82046C1.10039 6.08687 0.972973 6.40541 0.972973 6.77606C0.972973 7.14672 1.10039 7.46525 1.35521 7.73166C1.62162 7.99807 1.94595 8.13127 2.32819 8.13127H2.39049C2.18694 8.37928 2.08494 8.66873 2.08494 9C2.08494 9.37066 2.21236 9.68919 2.46718 9.9556C2.73359 10.222 3.05791 10.3552 3.44015 10.3552H4.61443C4.41088 10.6032 4.30888 10.8927 4.30888 11.2239C4.30888 11.5946 4.43629 11.9131 4.69112 12.1795C4.95753 12.4459 5.28185 12.5792 5.66409 12.5792H5.7264C5.52285 12.8272 5.42085 13.1166 5.42085 13.4479C5.42085 13.7791 5.52285 14.0686 5.7264 14.3166H4.23273C4.44553 14.0686 4.55212 13.7791 4.55212 13.4479C4.55212 13.0772 4.41892 12.7587 4.15251 12.4923C3.89768 12.2259 3.57915 12.0927 3.19691 12.0927H2.32819V11.1197H2.45904C2.21136 11.0063 1.98284 10.8474 1.77912 10.6437L1.77152 10.6359L1.76406 10.6282C1.33499 10.1796 1.11197 9.61971 1.11197 9C1.11197 8.9247 1.11532 8.85029 1.12188 8.77685C0.959812 8.67916 0.807556 8.56012 0.667154 8.41972L0.659553 8.41198L0.652087 8.40424C0.223019 7.95567 0 7.39577 0 6.77606ZM6.2722 0V0.972973H3.70077V0H6.2722Z" fill="#6C01B0"/>
</svg>
